<?xml version="1.0" encoding="utf-8"?>
<!-- Generator: Adobe Illustrator 16.0.0, SVG Export Plug-In . SVG Version: 6.00 Build 0)  -->
<!DOCTYPE svg PUBLIC "-//W3C//DTD SVG 1.1//EN" "http://www.w3.org/Graphics/SVG/1.1/DTD/svg11.dtd">
<svg version="1.1" id="Layer_1" xmlns="http://www.w3.org/2000/svg" xmlns:xlink="http://www.w3.org/1999/xlink" x="0px" y="0px"
	 width="44px" height="43.696px" viewBox="0 0 44 43.696" enable-background="new 0 0 44 43.696" xml:space="preserve">
<g>
	<defs>
		<rect id="SVGID_1_" y="0" width="44" height="43.697"/>
	</defs>
	<clipPath id="SVGID_2_">
		<use xlink:href="#SVGID_1_"  overflow="visible"/>
	</clipPath>
	<path clip-path="url(#SVGID_2_)" fill="#00A2DF" d="M44,10.115c-0.156-0.27-0.153-0.54,0-0.809V10.115z"/>
	<path clip-path="url(#SVGID_2_)" fill="#00A2DF" d="M44,9.205c-0.099-0.736-0.248-1.433-0.823-1.993
		c-0.603-0.588-1.158-1.224-1.791-1.779c-0.249-0.219-0.488-0.459-0.789-0.625c-1.341-0.742-2.743-0.617-3.963,0.335
		c-0.401,0.313-0.754,0.672-1.11,1.028c-1.441,1.442-2.882,2.884-4.325,4.323c-0.409,0.407-0.512,0.384-0.879-0.04
		c-0.353-0.406-0.71-0.81-1.057-1.22c-2.304-2.721-4.65-5.405-6.952-8.127C21.949,0.678,21.637,0.167,21.039,0H2.63
		C2.165,0.122,1.674,0.127,1.243,0.393C0.403,0.91,0.104,1.711,0,2.629v38.437c0.132,0.445,0.103,0.926,0.362,1.346
		c0.524,0.853,1.319,1.197,2.268,1.284h25.389c0.481-0.119,1.006-0.066,1.443-0.368c1.021-0.704,1.523-1.681,1.524-2.914
		c0.006-5.056,0.012-10.111-0.01-15.169c-0.003-0.663,0.205-1.135,0.671-1.598c3.709-3.68,7.385-7.392,11.102-11.065
		c0.686-0.677,1.219-1.374,1.251-2.367v-0.101c-0.082-0.269-0.082-0.539,0-0.809V9.205z M21.045,2.438
		c2.562,2.997,5.036,5.892,7.6,8.891h-3.332c-0.893,0-1.786,0.013-2.679-0.005c-0.844-0.017-1.567-0.649-1.578-1.474
		C21.026,7.429,21.045,5.006,21.045,2.438 M29.13,40.289c0,1.139-0.648,1.787-1.785,1.788c-7.973,0.001-15.944,0.001-23.917,0
		c-1.166,0-1.809-0.646-1.809-1.817c-0.001-12.271-0.001-24.54,0-36.81c0-1.201,0.636-1.83,1.846-1.831
		c5.157-0.001,10.315,0.005,15.472-0.01c0.404-0.001,0.496,0.111,0.493,0.5c-0.018,2.461-0.012,4.922-0.008,7.383
		c0.002,2.099,1.349,3.451,3.438,3.455c2.038,0.003,4.076,0,6.115,0c0.047,0.06,0.095,0.119,0.142,0.178
		c-0.165,0.111-0.354,0.198-0.493,0.336c-5.046,5.037-10.083,10.083-15.133,15.114c-0.374,0.373-0.6,0.762-0.7,1.287
		c-0.459,2.429-0.96,4.851-1.461,7.354c0.944-0.186,1.841-0.358,2.737-0.536c1.633-0.325,3.266-0.658,4.901-0.977
		c0.31-0.061,0.553-0.188,0.779-0.415c2.961-2.975,5.932-5.938,8.897-8.908c0.129-0.131,0.232-0.284,0.342-0.422
		c0.207,0.159,0.143,0.306,0.143,0.428C29.132,31.02,29.132,35.654,29.13,40.289 M14.378,30.272c1.299,1.299,2.601,2.6,3.91,3.91
		c-1.134,0.226-2.34,0.466-3.547,0.707c-0.33,0.064-0.66,0.127-0.989,0.198c-0.253,0.054-0.373,0.019-0.306-0.293
		C13.769,33.271,14.076,31.744,14.378,30.272 M37.612,15.133c-1.894,1.897-3.788,3.793-5.682,5.689
		c-3.968,3.972-7.938,7.938-11.894,11.921c-0.295,0.296-0.434,0.304-0.727,0.001c-1.172-1.211-2.368-2.398-3.573-3.578
		c-0.237-0.231-0.227-0.35,0.003-0.578c5.906-5.895,11.805-11.794,17.699-17.701c0.224-0.224,0.342-0.253,0.579-0.01
		c1.202,1.229,2.426,2.437,3.642,3.654c0.083,0.083,0.16,0.171,0.259,0.276C37.812,14.92,37.716,15.03,37.612,15.133 M41.846,10.892
		c-0.833,0.856-1.69,1.688-2.525,2.542c-0.183,0.187-0.286,0.187-0.47,0.001c-1.241-1.256-2.49-2.506-3.748-3.747
		c-0.192-0.189-0.176-0.291,0.006-0.469c0.866-0.848,1.718-1.709,2.575-2.565c0.313-0.312,0.7-0.452,1.127-0.474
		c0.465,0.025,0.858,0.189,1.183,0.512c0.619,0.618,1.249,1.226,1.855,1.857C42.535,9.262,42.535,10.184,41.846,10.892"/>
</g>
</svg>
