<?xml version="1.0" encoding="utf-8"?>
<!-- Generator: Adobe Illustrator 16.0.0, SVG Export Plug-In . SVG Version: 6.00 Build 0)  -->
<!DOCTYPE svg PUBLIC "-//W3C//DTD SVG 1.1//EN" "http://www.w3.org/Graphics/SVG/1.1/DTD/svg11.dtd">
<svg version="1.1" id="Layer_1" xmlns="http://www.w3.org/2000/svg" xmlns:xlink="http://www.w3.org/1999/xlink" x="0px" y="0px"
	 width="24px" height="24px" viewBox="0 0 24 24" enable-background="new 0 0 24 24" xml:space="preserve">
<g>
	<defs>
		<rect id="SVGID_1_" width="24" height="24"/>
	</defs>
	<clipPath id="SVGID_2_">
		<use xlink:href="#SVGID_1_"  overflow="visible"/>
	</clipPath>
	<path clip-path="url(#SVGID_2_)" fill="#738593" d="M16,2v18.263l-1-0.666l-1.109,0.739L12,21.597l-1.891-1.261L9,19.597
		l-1.109,0.739L6,21.597l-1.891-1.261L3,19.597l-1,0.666V4c0-1.103,0.897-2,2-2H16 M18,0H4C1.791,0,0,1.791,0,4v20l3-2l3,2l3-2l3,2
		l3-2l3,2V0z"/>
	
		<line clip-path="url(#SVGID_2_)" fill="none" stroke="#738593" stroke-width="2" stroke-miterlimit="10" x1="8" y1="16" x2="14" y2="16"/>
	
		<line clip-path="url(#SVGID_2_)" fill="none" stroke="#738593" stroke-width="2" stroke-miterlimit="10" x1="8" y1="11" x2="14" y2="11"/>
	
		<line clip-path="url(#SVGID_2_)" fill="none" stroke="#738593" stroke-width="2" stroke-miterlimit="10" x1="8" y1="6" x2="14" y2="6"/>
	
		<line clip-path="url(#SVGID_2_)" fill="none" stroke="#738593" stroke-width="2" stroke-miterlimit="10" x1="6" y1="16" x2="4" y2="16"/>
	
		<line clip-path="url(#SVGID_2_)" fill="none" stroke="#738593" stroke-width="2" stroke-miterlimit="10" x1="6" y1="11" x2="4" y2="11"/>
	
		<line clip-path="url(#SVGID_2_)" fill="none" stroke="#738593" stroke-width="2" stroke-miterlimit="10" x1="6" y1="6" x2="4" y2="6"/>
	<path clip-path="url(#SVGID_2_)" fill="#E9F1F4" d="M16,19c-3.859,0-7-3.141-7-7c0-3.859,3.141-7,7-7s7,3.141,7,7
		C23,15.859,19.859,19,16,19"/>
	<path clip-path="url(#SVGID_2_)" fill="#738593" d="M16,6c3.309,0,6,2.691,6,6c0,3.309-2.691,6-6,6s-6-2.691-6-6
		C10,8.691,12.691,6,16,6 M16,4c-4.418,0-8,3.582-8,8s3.582,8,8,8s8-3.582,8-8S20.418,4,16,4"/>
	<line clip-path="url(#SVGID_2_)" fill="#FFFFFF" x1="16" y1="8" x2="16" y2="13"/>
	<rect x="15" y="8" clip-path="url(#SVGID_2_)" fill="#738593" width="2" height="5"/>
	<line clip-path="url(#SVGID_2_)" fill="#FFFFFF" x1="16" y1="14" x2="16" y2="16"/>
	<rect x="15" y="14" clip-path="url(#SVGID_2_)" fill="#738593" width="2" height="2"/>
</g>
</svg>
