<svg id="167f7f82-a9db-47fc-b657-cf55007ee377" data-name="Layer 1" xmlns="http://www.w3.org/2000/svg" xmlns:xlink="http://www.w3.org/1999/xlink" viewBox="0 0 44 44"><defs><style>.\39 000b82c-7e50-4cad-9de3-4c46e0b10c88{fill:none;}.bd78966a-5b8c-4ab4-b600-5a36baa620a6,.cb1eb8d0-7e00-4bc5-bfee-4c8a2c8fa260{fill:#00a2df;}.\37 6ba745f-6c8f-4423-aa4c-dbf325e03d0d{clip-path:url(#02c13d99-0509-4cc1-a1dd-41dc13c8644a);}.\38 b860c75-c4b9-4443-a5af-3b68e13b778f{clip-path:url(#d07abc3a-6fcb-4924-90de-d643afbc20ab);}.cb1eb8d0-7e00-4bc5-bfee-4c8a2c8fa260{opacity:0.1;}.cbef3d1e-0865-48e5-ab21-1690c4d5b60f{clip-path:url(#d41c1276-1c07-4091-b64a-670fb35d94d8);}.aa98563f-9d69-478c-9e53-00311f304ea2{clip-path:url(#bb5cbc88-e26e-4e95-ae81-d01b5343869d);}.\30 69961c2-0520-49ea-b59e-4141af9bae79{clip-path:url(#c0ed13f7-4a84-4155-9a42-f8099ead3eca);}</style><clipPath id="02c13d99-0509-4cc1-a1dd-41dc13c8644a"><path class="9000b82c-7e50-4cad-9de3-4c46e0b10c88" d="M35.16,2.71v30a2.69,2.69,0,0,1-2.65,2.72H2.65A2.69,2.69,0,0,1,0,32.67v-30A2.69,2.69,0,0,1,2.65,0H32.51A2.69,2.69,0,0,1,35.16,2.71Z"/></clipPath><clipPath id="d07abc3a-6fcb-4924-90de-d643afbc20ab"><rect class="9000b82c-7e50-4cad-9de3-4c46e0b10c88" x="-339.77" y="-221.22" width="643.3" height="494.84"/></clipPath><clipPath id="d41c1276-1c07-4091-b64a-670fb35d94d8"><path class="bd78966a-5b8c-4ab4-b600-5a36baa620a6" d="M9.72,5A4.47,4.47,0,0,0,5.31,9.52v30A4.47,4.47,0,0,0,9.72,44H39.59A4.47,4.47,0,0,0,44,39.48v-30A4.47,4.47,0,0,0,39.59,5ZM42.24,9.52v30a2.69,2.69,0,0,1-2.65,2.71H9.72a2.69,2.69,0,0,1-2.64-2.71v-30A2.69,2.69,0,0,1,9.72,6.8H39.59A2.7,2.7,0,0,1,42.24,9.52Z"/></clipPath><clipPath id="bb5cbc88-e26e-4e95-ae81-d01b5343869d"><rect class="bd78966a-5b8c-4ab4-b600-5a36baa620a6" x="-339.77" y="-221.22" width="643.3" height="494.84"/></clipPath><clipPath id="c0ed13f7-4a84-4155-9a42-f8099ead3eca"><path class="9000b82c-7e50-4cad-9de3-4c46e0b10c88" d="M21.85,19.09a2.76,2.76,0,1,1-2.66,2.76A2.71,2.71,0,0,1,21.85,19.09Zm13,14.35H14.45a.82.82,0,0,1-.81-.83V30.35a.81.81,0,0,1,.15-.48l2.82-4.09a.79.79,0,0,1,1.1-.22l3.85,2.58a.78.78,0,0,0,1-.07l7.39-6.7a.79.79,0,0,1,1.17.12l4.2,5.58a.89.89,0,0,1,.17.51v5.2A.66.66,0,0,1,34.82,33.44Z"/></clipPath></defs><title>icon</title><g class="76ba745f-6c8f-4423-aa4c-dbf325e03d0d"><g class="8b860c75-c4b9-4443-a5af-3b68e13b778f"><rect class="cb1eb8d0-7e00-4bc5-bfee-4c8a2c8fa260" x="-4.02" y="-4.12" width="43.2" height="43.63"/></g></g><path class="bd78966a-5b8c-4ab4-b600-5a36baa620a6" d="M9.72,5A4.47,4.47,0,0,0,5.31,9.52v30A4.47,4.47,0,0,0,9.72,44H39.59A4.47,4.47,0,0,0,44,39.48v-30A4.47,4.47,0,0,0,39.59,5ZM42.24,9.52v30a2.69,2.69,0,0,1-2.65,2.71H9.72a2.69,2.69,0,0,1-2.64-2.71v-30A2.69,2.69,0,0,1,9.72,6.8H39.59A2.7,2.7,0,0,1,42.24,9.52Z"/><g class="cbef3d1e-0865-48e5-ab21-1690c4d5b60f"><rect class="bd78966a-5b8c-4ab4-b600-5a36baa620a6" x="-339.77" y="-221.22" width="643.3" height="494.84"/><g class="aa98563f-9d69-478c-9e53-00311f304ea2"><rect class="bd78966a-5b8c-4ab4-b600-5a36baa620a6" x="1.29" y="0.87" width="46.73" height="47.25"/></g></g><g class="069961c2-0520-49ea-b59e-4141af9bae79"><g class="8b860c75-c4b9-4443-a5af-3b68e13b778f"><rect class="bd78966a-5b8c-4ab4-b600-5a36baa620a6" x="9.62" y="14.97" width="29.87" height="22.6"/></g></g></svg>