<svg id="f8f5fe7d-18e0-4dcd-9431-5a8ea54bbfaa" data-name="Layer 1" xmlns="http://www.w3.org/2000/svg" xmlns:xlink="http://www.w3.org/1999/xlink" viewBox="0 0 44 44"><defs><style>.\36 7f652d1-8489-4088-a72b-f922324843a7{fill:none;}.\37 6d4b9f9-c4ba-4758-9f27-1ad02b8186ed,.c532f241-b79d-4df9-adc3-373dac46052d{fill:#00a2df;}.df82a66b-546e-4c90-8cae-9bcfcf7cfb49{fill:#29abe2;}.\37 07b11c1-45bf-4c73-8cec-94f2fb1336ff{clip-path:url(#d983f74e-9a4f-429c-b749-ffb004c2e157);}.\36 5575d37-971a-4531-9741-d65f595cfcd2{clip-path:url(#4bbdc75f-19d0-4405-9027-02b308600c0d);}.c532f241-b79d-4df9-adc3-373dac46052d{opacity:0.1;}.\34 45426e3-9832-41d9-83fa-c2b5ffe305ee{clip-path:url(#ce637e68-8985-47a6-95c9-e550d280bd34);}.\30 acc1a32-0753-4e9c-8eb5-9fbccf331e9f{clip-path:url(#1e57e44b-58d5-42c6-bbee-4099a4eb3286);}.\33 68b9ae2-7e55-4dc6-bdda-72b2fc411397{clip-path:url(#9096976e-f19e-4cb9-a2a2-1da5ab1eb2af);}.\38 6b92ce0-e128-43ac-a944-2245c3f12671{fill:#1c9eec;}.efbc7196-a9ab-4276-8774-769731668b6b{clip-path:url(#f54eb34b-3d9c-440f-b6a4-efb714c78901);}.a5d735dd-e5d0-4639-9fc3-afde84b9141b{clip-path:url(#dcf06e40-a3e3-412b-bf1e-4312905ad203);}.\37 fe82971-e9f7-4d60-8d1a-8394a27f74d8{clip-path:url(#93b64833-4537-45ce-aa3c-0479308fa5b8);}.a9677490-e98f-4cc8-8ba7-627b4234d557{clip-path:url(#ffd8faac-5bdc-498f-9f76-cfd40da45eb0);}.b6ceb692-d2bc-4ca1-84be-5c64ab1d895a{clip-path:url(#196060a6-d26b-47b6-90c1-92bc55016eab);}.a6bf26a9-403a-44d5-9424-c256bc60066b{clip-path:url(#d6dce094-290d-4649-ab82-8ff4512a6df8);}.d2a602f5-d529-4880-b074-fcca057574c5{clip-path:url(#f36fb3f2-8b29-4201-a181-0d7848b75416);}</style><clipPath id="d983f74e-9a4f-429c-b749-ffb004c2e157"><path class="67f652d1-8489-4088-a72b-f922324843a7" d="M34.93,13.16V33.62a1.73,1.73,0,0,1-1.72,1.73H1.72A1.73,1.73,0,0,1,0,33.62V1.73A1.73,1.73,0,0,1,1.72,0h21a1.73,1.73,0,0,1,1.72,1.73V6.87a3.37,3.37,0,0,0,3.39,3.45h5.36a1.73,1.73,0,0,1,1.72,1.74Z"/></clipPath><clipPath id="4bbdc75f-19d0-4405-9027-02b308600c0d"><rect class="67f652d1-8489-4088-a72b-f922324843a7" x="-194.7" y="-221.22" width="647.11" height="494.84"/></clipPath><clipPath id="ce637e68-8985-47a6-95c9-e550d280bd34"><path class="76d4b9f9-c4ba-4758-9f27-1ad02b8186ed" d="M42.05,19.76V40.22A1.73,1.73,0,0,1,40.32,42H8.84a1.73,1.73,0,0,1-1.72-1.73V8.33A1.73,1.73,0,0,1,8.84,6.6h21a1.73,1.73,0,0,1,1.72,1.73v5.13A3.38,3.38,0,0,0,35,16.92h5.36a1.73,1.73,0,0,1,1.72,1.73Zm-7.83-13,7.36,7.5a.49.49,0,0,1-.33.84h-5.9a2,2,0,0,1-2-2v-6A.48.48,0,0,1,34.22,6.8Zm9.3,6.37-8-8a1.54,1.54,0,0,0-1.12-.48H8.33A3.18,3.18,0,0,0,5.18,7.86V40.79A3.18,3.18,0,0,0,8.33,44H40.82A3.16,3.16,0,0,0,44,40.83l0-26.51A1.75,1.75,0,0,0,43.52,13.17Z"/></clipPath><clipPath id="1e57e44b-58d5-42c6-bbee-4099a4eb3286"><rect class="df82a66b-546e-4c90-8cae-9bcfcf7cfb49" x="-194.7" y="-221.22" width="647.11" height="494.84"/></clipPath><clipPath id="9096976e-f19e-4cb9-a2a2-1da5ab1eb2af"><path class="67f652d1-8489-4088-a72b-f922324843a7" d="M31.16,25.22a1.63,1.63,0,0,0-1.41.67,3.42,3.42,0,0,0-.47,2,3.5,3.5,0,0,0,.46,2,1.6,1.6,0,0,0,1.41.67c1.25,0,1.86-.88,1.86-2.67S32.39,25.22,31.16,25.22Z"/></clipPath><clipPath id="f54eb34b-3d9c-440f-b6a4-efb714c78901"><path class="67f652d1-8489-4088-a72b-f922324843a7" d="M23.46,25.32h-.83v5.15h.67c1.51,0,2.25-.87,2.25-2.61S24.85,25.32,23.46,25.32Z"/></clipPath><clipPath id="dcf06e40-a3e3-412b-bf1e-4312905ad203"><path class="67f652d1-8489-4088-a72b-f922324843a7" d="M38.57,30.57a5.38,5.38,0,0,0,1.87-.41v1.41a4.89,4.89,0,0,1-2,.41A3,3,0,0,1,36,30.93a4.64,4.64,0,0,1-.85-3,5.22,5.22,0,0,1,.43-2.17,3.17,3.17,0,0,1,1.2-1.42,3.44,3.44,0,0,1,1.84-.49,4.76,4.76,0,0,1,2.16.56l-.51,1.37a8.84,8.84,0,0,0-.83-.38,2.36,2.36,0,0,0-.81-.15,1.56,1.56,0,0,0-1.37.71,3.49,3.49,0,0,0-.48,2C36.72,29.69,37.32,30.57,38.57,30.57Zm-4.83.34A3.21,3.21,0,0,1,31.14,32a3.28,3.28,0,0,1-2.61-1.05,4.54,4.54,0,0,1-.91-3,4.49,4.49,0,0,1,.91-3,3.3,3.3,0,0,1,2.61-1,3.24,3.24,0,0,1,2.6,1.05,4.49,4.49,0,0,1,.9,3A4.44,4.44,0,0,1,33.74,30.91Zm-7.6-.09a4.09,4.09,0,0,1-3,1H21.06V23.94h2.31a3.72,3.72,0,0,1,2.81,1,3.92,3.92,0,0,1,1,2.85A4.06,4.06,0,0,1,26.14,30.82Zm-6.41-8.15A1.27,1.27,0,0,0,18.47,24V32a1.27,1.27,0,0,0,1.26,1.29H42.06V22.67Z"/></clipPath><clipPath id="93b64833-4537-45ce-aa3c-0479308fa5b8"><path class="67f652d1-8489-4088-a72b-f922324843a7" d="M-260.84,76.71v30a2.69,2.69,0,0,1-2.65,2.72h-29.86a2.69,2.69,0,0,1-2.65-2.72v-30A2.69,2.69,0,0,1-293.35,74h29.86A2.69,2.69,0,0,1-260.84,76.71Z"/></clipPath><clipPath id="ffd8faac-5bdc-498f-9f76-cfd40da45eb0"><path class="76d4b9f9-c4ba-4758-9f27-1ad02b8186ed" d="M-286.28,79a4.47,4.47,0,0,0-4.41,4.52v30a4.47,4.47,0,0,0,4.41,4.52h29.87a4.47,4.47,0,0,0,4.41-4.52v-30A4.47,4.47,0,0,0-256.41,79Zm32.52,4.52v30a2.69,2.69,0,0,1-2.65,2.71h-29.87a2.69,2.69,0,0,1-2.64-2.71v-30a2.69,2.69,0,0,1,2.64-2.72h29.87A2.7,2.7,0,0,1-253.76,83.52Z"/></clipPath><clipPath id="196060a6-d26b-47b6-90c1-92bc55016eab"><path class="67f652d1-8489-4088-a72b-f922324843a7" d="M-274.15,93.09a2.71,2.71,0,0,1,2.66,2.76,2.71,2.71,0,0,1-2.66,2.75,2.71,2.71,0,0,1-2.66-2.75A2.73,2.73,0,0,1-274.15,93.09Zm13,14.35h-20.37a.82.82,0,0,1-.81-.83v-2.26a.81.81,0,0,1,.15-.48l2.82-4.09a.79.79,0,0,1,1.1-.22l3.85,2.58a.78.78,0,0,0,1-.07l7.39-6.7a.79.79,0,0,1,1.17.12l4.2,5.58a.89.89,0,0,1,.17.51v5.2A.66.66,0,0,1-261.18,107.44Z"/></clipPath><clipPath id="d6dce094-290d-4649-ab82-8ff4512a6df8"><path class="67f652d1-8489-4088-a72b-f922324843a7" d="M-38.74,13.16V33.62a1.75,1.75,0,0,1-1.74,1.73H-72.26A1.74,1.74,0,0,1-74,33.62V1.73A1.74,1.74,0,0,1-72.26,0H-51a1.75,1.75,0,0,1,1.74,1.73V6.87a3.39,3.39,0,0,0,3.42,3.45h5.41a1.75,1.75,0,0,1,1.74,1.74Z"/></clipPath><clipPath id="f36fb3f2-8b29-4201-a181-0d7848b75416"><path class="67f652d1-8489-4088-a72b-f922324843a7" d="M-32,19.76V40.22A1.74,1.74,0,0,1-33.71,42H-65.49a1.74,1.74,0,0,1-1.73-1.73V8.33A1.74,1.74,0,0,1-65.49,6.6h21.22a1.74,1.74,0,0,1,1.73,1.73v5.13a3.4,3.4,0,0,0,3.42,3.46h5.42A1.74,1.74,0,0,1-32,18.65Zm-7.9-13,7.43,7.5a.49.49,0,0,1-.34.84h-5.95a2,2,0,0,1-2-2v-6A.48.48,0,0,1-39.87,6.8Zm9.39,6.37-8-8a1.6,1.6,0,0,0-1.14-.48H-66a3.19,3.19,0,0,0-3.18,3.21V40.79A3.19,3.19,0,0,0-66,44h32.79A3.17,3.17,0,0,0-30,40.83l0-26.51A1.75,1.75,0,0,0-30.48,13.17Z"/></clipPath></defs><title>icon</title><g class="707b11c1-45bf-4c73-8cec-94f2fb1336ff"><g class="65575d37-971a-4531-9741-d65f595cfcd2"><rect class="c532f241-b79d-4df9-adc3-373dac46052d" x="-4.04" y="-4.12" width="43.02" height="43.6"/></g></g><path class="76d4b9f9-c4ba-4758-9f27-1ad02b8186ed" d="M42.05,19.76V40.22A1.73,1.73,0,0,1,40.32,42H8.84a1.73,1.73,0,0,1-1.72-1.73V8.33A1.73,1.73,0,0,1,8.84,6.6h21a1.73,1.73,0,0,1,1.72,1.73v5.13A3.38,3.38,0,0,0,35,16.92h5.36a1.73,1.73,0,0,1,1.72,1.73Zm-7.83-13,7.36,7.5a.49.49,0,0,1-.33.84h-5.9a2,2,0,0,1-2-2v-6A.48.48,0,0,1,34.22,6.8Zm9.3,6.37-8-8a1.54,1.54,0,0,0-1.12-.48H8.33A3.18,3.18,0,0,0,5.18,7.86V40.79A3.18,3.18,0,0,0,8.33,44H40.82A3.16,3.16,0,0,0,44,40.83l0-26.51A1.75,1.75,0,0,0,43.52,13.17Z"/><g class="445426e3-9832-41d9-83fa-c2b5ffe305ee"><rect class="df82a66b-546e-4c90-8cae-9bcfcf7cfb49" x="-194.7" y="-221.22" width="647.11" height="494.84"/><g class="0acc1a32-0753-4e9c-8eb5-9fbccf331e9f"><rect class="df82a66b-546e-4c90-8cae-9bcfcf7cfb49" x="1.14" y="0.53" width="46.91" height="47.6"/></g></g><g class="368b9ae2-7e55-4dc6-bdda-72b2fc411397"><g class="65575d37-971a-4531-9741-d65f595cfcd2"><rect class="86b92ce0-e128-43ac-a944-2245c3f12671" x="25.23" y="21.1" width="11.82" height="13.58"/></g></g><g class="efbc7196-a9ab-4276-8774-769731668b6b"><g class="65575d37-971a-4531-9741-d65f595cfcd2"><rect class="86b92ce0-e128-43ac-a944-2245c3f12671" x="18.58" y="21.2" width="11.02" height="13.39"/></g></g><g class="a5d735dd-e5d0-4639-9fc3-afde84b9141b"><g class="65575d37-971a-4531-9741-d65f595cfcd2"><rect class="76d4b9f9-c4ba-4758-9f27-1ad02b8186ed" x="14.42" y="18.54" width="31.68" height="18.88"/></g></g><path class="76d4b9f9-c4ba-4758-9f27-1ad02b8186ed" d="M-286.28,79a4.47,4.47,0,0,0-4.41,4.52v30a4.47,4.47,0,0,0,4.41,4.52h29.87a4.47,4.47,0,0,0,4.41-4.52v-30A4.47,4.47,0,0,0-256.41,79Zm32.52,4.52v30a2.69,2.69,0,0,1-2.65,2.71h-29.87a2.69,2.69,0,0,1-2.64-2.71v-30a2.69,2.69,0,0,1,2.64-2.72h29.87A2.7,2.7,0,0,1-253.76,83.52Z"/><g class="a9677490-e98f-4cc8-8ba7-627b4234d557"><rect class="76d4b9f9-c4ba-4758-9f27-1ad02b8186ed" x="-635.77" y="-147.22" width="643.3" height="494.84"/></g></svg>