<svg id="0030adaa-ce6e-4a14-9f82-9fe71dc40673" data-name="rate" xmlns="http://www.w3.org/2000/svg" viewBox="0 0 24 24">
<defs>
<style>
.\33 a88a863-7cc5-4968-a996-433432c3db02{
fill:#;
stroke:#00a2df;
stroke-linejoin:round;
stroke-width:2px;
}
path{
fill: #00a2df
}
polyline{
fill:#fdfdff
}
</style>
</defs>
<title>icon_rate</title>
<g id="2a9dafc1-f537-4697-9607-e7b1ae75206c" data-name="rate">
<path d="M8.426,2.162a.987.987,0,0,1,.316.052l7.143,2.371a1,1,0,0,1,.551.45l5.43,9.4a1,1,0,0,1-.367,1.366l-8.66,5a1,1,0,0,1-1.366-.366l-5.429-9.4a1,1,0,0,1-.114-.7L7.448,2.962a1,1,0,0,1,.978-.8m0-2a3,3,0,0,0-2.937,2.4L3.971,9.93a3,3,0,0,0,.34,2.105l5.43,9.4a3,3,0,0,0,4.1,1.1l8.66-5a3,3,0,0,0,1.1-4.1l-5.43-9.4a3,3,0,0,0-1.653-1.348L9.372.316A2.983,2.983,0,0,0,8.426.162Z"/>
<path d="M11.667,8.046a.991.991,0,0,1,.868.5,1,1,0,0,1-.366,1.366A1,1,0,0,1,10.8,9.547a1,1,0,0,1,.366-1.366.988.988,0,0,1,.5-.135m0-2a3,3,0,1,0,2.6,1.5,2.985,2.985,0,0,0-2.6-1.5Z"/>
<line class="3a88a863-7cc5-4968-a996-433432c3db02" x1="11.888" y1="16.89" x2="17.95" y2="13.39"/>
<polyline class="3a88a863-7cc5-4968-a996-433432c3db02" points="3 2 0.856 10.5 6.856 22.5"/>
</g>
</svg>