<svg id="16e49610-3b57-4fdb-a247-32bc3fdbb616" data-name="Layer 1" xmlns="http://www.w3.org/2000/svg" viewBox="0 0 24 24"><defs><style>.\37 fe10b15-3368-4517-bbf7-636b845ecf78{fill:#738593;}.\35 a8a749c-9d76-44b9-a886-1e6e3c59983a{fill:none;stroke:#738593;stroke-miterlimit:10;stroke-width:2px;}.\36 195122e-5bdb-460f-9daf-b28d06be4e64{fill:#e9f1f4;}.\30 ec10444-0a6f-4023-a778-966b2c1cacac{fill:#fff;}</style></defs><title>icon_revenue</title><path class="7fe10b15-3368-4517-bbf7-636b845ecf78" d="M16,2V20.263L15,19.6l-1.109.74L12,21.6l-1.891-1.26L9,19.6l-1.109.74L6,21.6l-1.891-1.26L3,19.6l-1,.667V4A2,2,0,0,1,4,2H16m2-2H4A4,4,0,0,0,0,4V24l3-2,3,2,3-2,3,2,3-2,3,2V0Z"/><line class="5a8a749c-9d76-44b9-a886-1e6e3c59983a" x1="8" y1="16" x2="14" y2="16"/><line class="5a8a749c-9d76-44b9-a886-1e6e3c59983a" x1="8" y1="6" x2="14" y2="6"/><line class="5a8a749c-9d76-44b9-a886-1e6e3c59983a" x1="6" y1="16" x2="4" y2="16"/><line class="5a8a749c-9d76-44b9-a886-1e6e3c59983a" x1="6" y1="11" x2="4" y2="11"/><line class="5a8a749c-9d76-44b9-a886-1e6e3c59983a" x1="6" y1="6" x2="4" y2="6"/><circle class="6195122e-5bdb-460f-9daf-b28d06be4e64" cx="16" cy="12" r="7"/><path class="7fe10b15-3368-4517-bbf7-636b845ecf78" d="M16,6a6,6,0,1,1-6,6,6.007,6.007,0,0,1,6-6m0-2a8,8,0,1,0,8,8,8,8,0,0,0-8-8Z"/><g id="b1628fe0-9422-45ab-9d82-c50fc8fa90d7" data-name="&lt;Group&gt;"><polygon class="0ec10444-0a6f-4023-a778-966b2c1cacac" points="18.469 9 15.2 12.098 13.531 10.516 12 11.967 15.2 15 20 10.451 18.469 9"/><polygon class="7fe10b15-3368-4517-bbf7-636b845ecf78" points="18.469 9 15.2 12.098 13.531 10.516 12 11.967 15.2 15 20 10.451 18.469 9"/></g></svg>