<svg id="765396b5-f08c-4259-8ecd-a980a49b49fb" data-name="Layer 1" xmlns="http://www.w3.org/2000/svg" viewBox="0 0 44 44">
  <defs>
    <style>
      .\37 d7b02be-33a3-4e83-a552-ddafb452a286 {
        fill: #00a2df;
      }

      .\33 77872d9-293a-4d1e-85b0-68733c95ca6d {
        fill: #cee6ea;
      }

      .\35 4968869-b6bc-4877-8c8e-db7f3388190d {
        fill: #fff;
      }
    </style>
  </defs>
  <title>icon</title>
  <rect class="7d7b02be-33a3-4e83-a552-ddafb452a286" y="42" width="44" height="2"/>
  <g>
    <g>
      <path class="7d7b02be-33a3-4e83-a552-ddafb452a286" d="M36,0l5.28,2.4A2,2,0,0,1,42,3.937V42H25V9.948A2,2,0,0,1,25.734,8.4Z"/>
      <path class="377872d9-293a-4d1e-85b0-68733c95ca6d" d="M27,9.383l9-7.4V42H31V16.869a1,1,0,0,0-1.555-.832L26.176,19V11A2,2,0,0,1,27,9.383Z"/>
    </g>
    <g>
      <path class="7d7b02be-33a3-4e83-a552-ddafb452a286" d="M22,14l3,2a1.385,1.385,0,0,1,.56,1.1V42H13V21a2.1,2.1,0,0,1,1-2Z"/>
      <path class="54968869-b6bc-4877-8c8e-db7f3388190d" d="M14.671,20,22,15V42H19V31.881a.821.821,0,0,0-1.266-.613L14,34V21.191A1.433,1.433,0,0,1,14.671,20Z"/>
    </g>
  </g>
  <path class="7d7b02be-33a3-4e83-a552-ddafb452a286" d="M8.416,34.97,6.534,33.083a2,2,0,0,0-2.832,0L2.088,34.7a2,2,0,0,0,0,2.825l1.883,1.888a2,2,0,0,0,2.832,0l1.613-1.618A2,2,0,0,0,8.416,34.97Z"/>
  <rect class="7d7b02be-33a3-4e83-a552-ddafb452a286" x="4.752" y="38" width="1" height="4"/>
</svg>
