<svg id="eb6db949-8587-45a7-94bb-b3cd8c3892a4" data-name="Layer 1" xmlns="http://www.w3.org/2000/svg" viewBox="0 0 44 44">
  <defs>
    <style>
      .\37 a9745c6-df84-4eec-878e-b73c85ee5aae {
        fill: #cee6ea;
      }

      .\39 e12e205-32af-4a00-a834-28efdb31ce64 {
        fill: #00a2df;
      }
    </style>
  </defs>
  <title>icon</title>
  <path class="7a9745c6-df84-4eec-878e-b73c85ee5aae" d="M2,42a19.947,19.947,0,0,1,3.157-7.723,14.445,14.445,0,0,1,5.471-4.206.539.539,0,0,1,.649.084q5.052,4,10.116,7.975l.595.465c1.286-1.007,2.557-2,3.826-3,2.276-1.787,4.556-3.567,6.82-5.37a.744.744,0,0,1,.9-.1c4.108,1.905,6.787,5.91,8.123,10.375.131.437.232.884.344,1.326A.81.81,0,0,1,42,42Z"/>
  <g>
    <path class="9e12e205-32af-4a00-a834-28efdb31ce64" d="M11.974,28a.783.783,0,0,0-.24.043,16.983,16.983,0,0,0-5.244,2.69A16.481,16.481,0,0,0,.447,40.6c-.191.864-.3,1.747-.447,2.621V44H44v-.775c-.088-.579-.163-1.16-.265-1.737a17.734,17.734,0,0,0-3.581-8.181,16.278,16.278,0,0,0-7.767-5.243.912.912,0,0,0-.843.141c-3.053,2.327-6.12,4.637-9.174,6.964a.631.631,0,0,1-.37.166.6.6,0,0,1-.357-.156c-3.087-2.353-6.191-4.684-9.284-7.029A.617.617,0,0,0,11.974,28ZM3.087,41.242a14.819,14.819,0,0,1,2.984-6.295,13.6,13.6,0,0,1,5.171-3.815.658.658,0,0,1,.264-.065.57.57,0,0,1,.35.141q4.775,3.624,9.562,7.233l.562.422c1.215-.914,2.417-1.815,3.616-2.719,2.151-1.62,4.307-3.235,6.446-4.871a.754.754,0,0,1,.466-.184.94.94,0,0,1,.381.1,13.477,13.477,0,0,1,7.678,8.7c.124.4.219.8.325,1.2a.705.705,0,0,1,0,.152Z"/>
    <path class="9e12e205-32af-4a00-a834-28efdb31ce64" d="M21.645,0c-.447.072-.9.131-1.343.214A11.943,11.943,0,0,0,22.429,23.9a11.65,11.65,0,0,0,1.737-.13A11.935,11.935,0,0,0,25.177.346C24.59.211,23.991.125,23.4.017L21.645,0Zm.841,21.163a9.2,9.2,0,0,1-.1-18.405H22.4a9.2,9.2,0,0,1,.118,18.405Z"/>
  </g>
</svg>
