<?xml version="1.0" encoding="utf-8"?>
<!-- Generator: Adobe Illustrator 23.0.2, SVG Export Plug-In . SVG Version: 6.00 Build 0)  -->
<svg version="1.1" id="Layer_1" xmlns="http://www.w3.org/2000/svg" xmlns:xlink="http://www.w3.org/1999/xlink" x="0px" y="0px"
	 viewBox="0 0 350 350" style="enable-background:new 0 0 350 350;" xml:space="preserve">
<style type="text/css">
	.st0{fill:#FFFFFF;}
	.st1{fill:none;}
	.st2{fill:#00A2DF;}
	.st3{fill:none;stroke:#00A2DF;stroke-width:25;stroke-linecap:round;stroke-miterlimit:10;}
</style>
<g>
	<path class="st0" d="M177,212.1V350h173V212.1H177z M349.9,349.1H197.6V232.7h152.3V349.1z"/>
</g>
<g>
	<path class="st1" d="M275.8,74.2C248.8,47.3,213.1,32.5,175,32.5S101.2,47.3,74.2,74.2C47.3,101.2,32.5,136.9,32.5,175
		s14.8,73.8,41.7,100.8c26.9,26.9,62.7,41.7,100.8,41.7c0.7,0,1.3,0,2,0V212.1h135.6c3.2-12,4.9-24.4,4.9-37.1
		C317.5,136.9,302.7,101.2,275.8,74.2z"/>
	<path class="st2" d="M175,317.5c-38.1,0-73.8-14.8-100.8-41.7C47.3,248.8,32.5,213.1,32.5,175s14.8-73.8,41.7-100.8
		c26.9-26.9,62.7-41.7,100.8-41.7s73.8,14.8,100.8,41.7c26.9,26.9,41.7,62.7,41.7,100.8c0,12.7-1.7,25.2-4.9,37.1h30.8
		c2.6-12,4-24.4,4-37.1C347.5,79.7,270.3,2.5,175,2.5S2.5,79.7,2.5,175S79.7,347.5,175,347.5c0.7,0,1.3,0,2,0v-30
		C176.3,317.5,175.7,317.5,175,317.5z"/>
</g>
<g>
	<path class="st2" d="M347.5,175c0-6.9-5.6-12.5-12.5-12.5h-30.1h-9.5c-6.9,0-12.5,5.6-12.5,12.5c0,6.9,5.6,12.5,12.5,12.5h9.5H335
		C341.9,187.5,347.5,181.9,347.5,175z"/>
	<path class="st2" d="M2.5,175c0,6.9,5.6,12.5,12.5,12.5h30.1h9.5c6.9,0,12.5-5.6,12.5-12.5c0-6.9-5.6-12.5-12.5-12.5h-9.5H15
		C8.1,162.5,2.5,168.1,2.5,175z"/>
	<path class="st2" d="M175,2.5c-6.9,0-12.5,5.6-12.5,12.5v30.1v9.5c0,6.9,5.6,12.5,12.5,12.5c6.9,0,12.5-5.6,12.5-12.5v-9.5V15
		C187.5,8.1,181.9,2.5,175,2.5z"/>
	<path class="st2" d="M175,347.5c0.7,0,1.3-0.1,2-0.2V283c-0.7-0.1-1.3-0.2-2-0.2c-6.9,0-12.5,5.6-12.5,12.5v9.5V335
		C162.5,341.9,168.1,347.5,175,347.5z"/>
	<path class="st2" d="M177,347.5v-0.1c-0.7,0.1-1.3,0.2-2,0.2C175.7,347.5,176.3,347.5,177,347.5z"/>
</g>
<circle class="st2" cx="175" cy="175" r="34.4"/>
<line class="st3" x1="175" y1="91" x2="175" y2="172.8"/>
<line class="st3" x1="236.1" y1="137.7" x2="173.7" y2="172.3"/>
<g>
	<path class="st2" d="M197.6,228v121.1h152.3V228H197.6z M268.1,325.9h-47.6v-9.5l8.7-7.8c14.7-13.1,21.8-20.6,22-28.5
		c0-5.5-3.3-9.8-11-9.8c-5.8,0-10.8,2.9-14.4,5.6l-4.4-11.3c5.1-3.8,12.9-6.9,22-6.9c15.2,0,23.5,8.9,23.5,21.1
		c0,11.3-8.2,20.2-17.9,28.9l-6.2,5.2v0.2h25.3V325.9z M327.7,325.9H312v-27.8c0-6.6-2.3-11.1-8.2-11.1c-4.1,0-6.7,2.7-7.8,5.5
		c-0.4,1-0.5,2.4-0.5,3.5v29.9h-15.7v-73.3h15.7v28.8h0.2c1.7-2.2,3.7-3.8,6.2-5.2c2.3-1.2,5.3-2,8.2-2c10,0,17.7,6.9,17.7,22.1
		V325.9z"/>
</g>
</svg>
