<svg id="a2067a01-4327-4b3f-921a-fdbaf7171091" data-name="Layer 1" xmlns="http://www.w3.org/2000/svg" viewBox="0 0 24 24">
<defs>
<style>
.dd234799-1bc1-4332-84ef-46ac05d9809e{
fill:#00a2df;
}
.\35 955ef06-3197-4395-98d5-99f663e2a8b5{
fill:none;
stroke:#00a2df;
stroke-miterlimit:10;
stroke-width:2px;
}
</style>
</defs>
<title>icon_deal</title>
<path class="dd234799-1bc1-4332-84ef-46ac05d9809e" d="M15.762,2a.885.885,0,0,1,.89.822,4.9,4.9,0,0,0,4.527,4.526.877.877,0,0,1,.6,1.451,4.9,4.9,0,0,0,0,6.4.877.877,0,0,1-.6,1.451,4.9,4.9,0,0,0-4.527,4.527.885.885,0,0,1-.89.821.839.839,0,0,1-.561-.22,4.879,4.879,0,0,0-6.4,0,.839.839,0,0,1-.561.22.885.885,0,0,1-.89-.822,4.9,4.9,0,0,0-4.527-4.526.877.877,0,0,1-.6-1.451,4.9,4.9,0,0,0,0-6.4.877.877,0,0,1,.6-1.451A4.9,4.9,0,0,0,7.348,2.821.885.885,0,0,1,8.238,2a.838.838,0,0,1,.561.22,4.879,4.879,0,0,0,3.2,1.2,4.879,4.879,0,0,0,3.2-1.2A.839.839,0,0,1,15.762,2m0-2a2.83,2.83,0,0,0-1.873.71h0A2.869,2.869,0,0,1,12,1.417,2.869,2.869,0,0,1,10.112.711h0A2.829,2.829,0,0,0,8.238,0,2.876,2.876,0,0,0,5.353,2.682h0A2.878,2.878,0,0,1,2.682,5.353h0A2.877,2.877,0,0,0,.71,10.111h0a2.876,2.876,0,0,1,0,3.776h0a2.877,2.877,0,0,0,1.972,4.758h0a2.878,2.878,0,0,1,2.671,2.671h0A2.876,2.876,0,0,0,8.238,24a2.83,2.83,0,0,0,1.873-.71h0a2.877,2.877,0,0,1,3.776,0h0a2.829,2.829,0,0,0,1.873.71,2.876,2.876,0,0,0,2.885-2.682h0a2.878,2.878,0,0,1,2.671-2.671h0a2.877,2.877,0,0,0,1.972-4.758h0a2.878,2.878,0,0,1,0-3.776h0a2.877,2.877,0,0,0-1.972-4.758h0a2.878,2.878,0,0,1-2.671-2.671h0A2.876,2.876,0,0,0,15.762,0Z" transform="translate(0)"/>
<line class="5955ef06-3197-4395-98d5-99f663e2a8b5" x1="16" y1="8" x2="8" y2="16"/><circle class="dd234799-1bc1-4332-84ef-46ac05d9809e" cx="8.5" cy="8.5" r="1.5"/><circle class="dd234799-1bc1-4332-84ef-46ac05d9809e" cx="15.5" cy="14.5" r="1.5"/>
</svg>