<svg id="cf9cc592-7a4d-414d-bf7c-c6296f842b72" data-name="Layer 1" xmlns="http://www.w3.org/2000/svg" xmlns:xlink="http://www.w3.org/1999/xlink" viewBox="0 0 44 44"><defs><style>.f7c9d665-89f7-48af-bec6-b57e6172cda2{fill:none;}.a1720df1-02da-4d47-bc34-a1a70fc09e4c,.c3c2b407-fdac-462a-868f-17a97ea305f3{fill:#00a2df;}.\37 41dd814-e1d8-4442-9ca2-16e5cf9f7c67{clip-path:url(#c50385bf-25f0-4eb3-becc-2d79280b0af1);}.\37 db92c57-ec65-49c6-934c-a14bbd7e484b{clip-path:url(#29d33b98-2b0e-44fc-a17b-28008478dde7);}.\38 fccd1d4-b6bb-4018-b9d4-e900f67bd55a{fill:#29abe2;}.\30 e36c910-fd9f-4e76-a0a8-1aaac7fc7cd9{clip-path:url(#408a04cb-b86d-436d-9ca6-61efaf0dff12);}.\34 0b4bb7e-2e4c-4795-ae64-b06c4440a79a{clip-path:url(#6a960bd0-d745-4fcb-9c72-e16b76072392);}.\34 a6bbfa7-5585-489a-ad71-5f413957596b{clip-path:url(#caee2895-4747-4300-b8af-dfff66440b28);}.\30 610c3cd-2faf-43d8-ae6b-8e3c5dbc894b{clip-path:url(#5b17a554-0d15-499f-b43c-b1a7999ddd49);}.\34 c5922c7-bb3d-497c-bd28-f8db335c0f2b{clip-path:url(#8dd2ba10-31e5-4cfd-bb70-e50a1a48389e);}.\34 54c5b2f-7f72-4779-a0d4-0b3e071ec481{clip-path:url(#649ab46c-8a57-4044-ae26-3586077d0f64);}.\30 379a72e-1d9e-4ec4-b0fa-ff3066a35547{clip-path:url(#bb68eafb-329d-4376-8e26-c5524f62208b);}.\36 7fea6c7-a52d-401e-beed-042a86528bd2{clip-path:url(#6e3d9bc8-7c5f-41f9-879d-e8a39f27a6fe);}.c3c2b407-fdac-462a-868f-17a97ea305f3{opacity:0.1;}.\36 8e4a4ab-11a3-4644-89ec-531fbe711cf6{clip-path:url(#bc094633-6d65-4d66-bdbb-96d93b2cd3b4);}</style><clipPath id="c50385bf-25f0-4eb3-becc-2d79280b0af1"><path class="f7c9d665-89f7-48af-bec6-b57e6172cda2" d="M108.93,13.16V33.62a1.73,1.73,0,0,1-1.72,1.73H75.72A1.73,1.73,0,0,1,74,33.62V1.73A1.73,1.73,0,0,1,75.72,0h21a1.73,1.73,0,0,1,1.72,1.73V6.87a3.37,3.37,0,0,0,3.39,3.45h5.36a1.73,1.73,0,0,1,1.72,1.74Z"/></clipPath><clipPath id="29d33b98-2b0e-44fc-a17b-28008478dde7"><path class="a1720df1-02da-4d47-bc34-a1a70fc09e4c" d="M116.05,19.76V40.22A1.73,1.73,0,0,1,114.32,42H82.84a1.73,1.73,0,0,1-1.72-1.73V8.33A1.73,1.73,0,0,1,82.84,6.6h21a1.73,1.73,0,0,1,1.72,1.73v5.13A3.38,3.38,0,0,0,109,16.92h5.36a1.73,1.73,0,0,1,1.72,1.73Zm-7.83-13,7.36,7.5a.49.49,0,0,1-.33.84h-5.9a2,2,0,0,1-1.95-2v-6A.48.48,0,0,1,108.22,6.8Zm9.3,6.37-8-8a1.54,1.54,0,0,0-1.12-.48H82.33a3.18,3.18,0,0,0-3.15,3.21V40.79A3.18,3.18,0,0,0,82.33,44h32.49A3.16,3.16,0,0,0,118,40.83l0-26.51A1.75,1.75,0,0,0,117.52,13.17Z"/></clipPath><clipPath id="408a04cb-b86d-436d-9ca6-61efaf0dff12"><path class="f7c9d665-89f7-48af-bec6-b57e6172cda2" d="M105.16,25.22a1.63,1.63,0,0,0-1.41.67,3.42,3.42,0,0,0-.47,2,3.5,3.5,0,0,0,.46,2,1.6,1.6,0,0,0,1.41.67c1.25,0,1.86-.88,1.86-2.67S106.39,25.22,105.16,25.22Z"/></clipPath><clipPath id="6a960bd0-d745-4fcb-9c72-e16b76072392"><path class="f7c9d665-89f7-48af-bec6-b57e6172cda2" d="M97.46,25.32h-.83v5.15h.67c1.51,0,2.25-.87,2.25-2.61S98.85,25.32,97.46,25.32Z"/></clipPath><clipPath id="caee2895-4747-4300-b8af-dfff66440b28"><path class="f7c9d665-89f7-48af-bec6-b57e6172cda2" d="M112.57,30.57a5.38,5.38,0,0,0,1.87-.41v1.41a4.89,4.89,0,0,1-2,.41A3,3,0,0,1,110,30.93a4.64,4.64,0,0,1-.85-3,5.22,5.22,0,0,1,.43-2.17,3.17,3.17,0,0,1,1.2-1.42,3.44,3.44,0,0,1,1.84-.49,4.76,4.76,0,0,1,2.16.56l-.51,1.37a8.84,8.84,0,0,0-.83-.38,2.36,2.36,0,0,0-.81-.15,1.56,1.56,0,0,0-1.37.71,3.49,3.49,0,0,0-.48,2C110.72,29.69,111.32,30.57,112.57,30.57Zm-4.83.34a3.21,3.21,0,0,1-2.6,1.05,3.28,3.28,0,0,1-2.61-1.05,4.54,4.54,0,0,1-.91-3,4.49,4.49,0,0,1,.91-3,3.3,3.3,0,0,1,2.61-1,3.24,3.24,0,0,1,2.6,1.05,4.49,4.49,0,0,1,.9,3A4.44,4.44,0,0,1,107.74,30.91Zm-7.6-.09a4.09,4.09,0,0,1-3,1H95.06V23.94h2.31a3.72,3.72,0,0,1,2.81,1,3.92,3.92,0,0,1,1,2.85A4.06,4.06,0,0,1,100.14,30.82Zm-6.41-8.15A1.27,1.27,0,0,0,92.47,24V32a1.27,1.27,0,0,0,1.26,1.29h22.33V22.67Z"/></clipPath><clipPath id="5b17a554-0d15-499f-b43c-b1a7999ddd49"><path class="f7c9d665-89f7-48af-bec6-b57e6172cda2" d="M-186.84,76.71v30a2.69,2.69,0,0,1-2.65,2.72h-29.86a2.69,2.69,0,0,1-2.65-2.72v-30A2.69,2.69,0,0,1-219.35,74h29.86A2.69,2.69,0,0,1-186.84,76.71Z"/></clipPath><clipPath id="8dd2ba10-31e5-4cfd-bb70-e50a1a48389e"><path class="a1720df1-02da-4d47-bc34-a1a70fc09e4c" d="M-212.28,79a4.47,4.47,0,0,0-4.41,4.52v30a4.47,4.47,0,0,0,4.41,4.52h29.87a4.47,4.47,0,0,0,4.41-4.52v-30A4.47,4.47,0,0,0-182.41,79Zm32.52,4.52v30a2.69,2.69,0,0,1-2.65,2.71h-29.87a2.69,2.69,0,0,1-2.64-2.71v-30a2.69,2.69,0,0,1,2.64-2.72h29.87A2.7,2.7,0,0,1-179.76,83.52Z"/></clipPath><clipPath id="649ab46c-8a57-4044-ae26-3586077d0f64"><path class="f7c9d665-89f7-48af-bec6-b57e6172cda2" d="M-200.15,93.09a2.71,2.71,0,0,1,2.66,2.76,2.71,2.71,0,0,1-2.66,2.75,2.71,2.71,0,0,1-2.66-2.75A2.73,2.73,0,0,1-200.15,93.09Zm13,14.35h-20.37a.82.82,0,0,1-.81-.83v-2.26a.81.81,0,0,1,.15-.48l2.82-4.09a.79.79,0,0,1,1.1-.22l3.85,2.58a.78.78,0,0,0,1-.07l7.39-6.7a.79.79,0,0,1,1.17.12l4.2,5.58a.89.89,0,0,1,.17.51v5.2A.66.66,0,0,1-187.18,107.44Z"/></clipPath><clipPath id="bb68eafb-329d-4376-8e26-c5524f62208b"><path class="f7c9d665-89f7-48af-bec6-b57e6172cda2" d="M35.26,13.16V33.62a1.75,1.75,0,0,1-1.74,1.73H1.74A1.74,1.74,0,0,1,0,33.62V1.73A1.74,1.74,0,0,1,1.74,0H23a1.75,1.75,0,0,1,1.74,1.73V6.87a3.39,3.39,0,0,0,3.42,3.45h5.41a1.75,1.75,0,0,1,1.74,1.74Z"/></clipPath><clipPath id="6e3d9bc8-7c5f-41f9-879d-e8a39f27a6fe"><rect class="f7c9d665-89f7-48af-bec6-b57e6172cda2" x="-122.05" y="-221.22" width="653.12" height="494.84"/></clipPath><clipPath id="bc094633-6d65-4d66-bdbb-96d93b2cd3b4"><path class="f7c9d665-89f7-48af-bec6-b57e6172cda2" d="M42,19.76V40.22A1.74,1.74,0,0,1,40.29,42H8.51a1.74,1.74,0,0,1-1.73-1.73V8.33A1.74,1.74,0,0,1,8.51,6.6H29.73a1.74,1.74,0,0,1,1.73,1.73v5.13a3.4,3.4,0,0,0,3.42,3.46H40.3A1.74,1.74,0,0,1,42,18.65Zm-7.9-13,7.43,7.5a.49.49,0,0,1-.34.84H35.27a2,2,0,0,1-2-2v-6A.48.48,0,0,1,34.13,6.8Zm9.39,6.37-8-8a1.6,1.6,0,0,0-1.14-.48H8A3.19,3.19,0,0,0,4.82,7.86V40.79A3.19,3.19,0,0,0,8,44H40.79A3.17,3.17,0,0,0,44,40.83l0-26.51A1.75,1.75,0,0,0,43.52,13.17Z"/></clipPath></defs><title>icon</title><path class="a1720df1-02da-4d47-bc34-a1a70fc09e4c" d="M116.05,19.76V40.22A1.73,1.73,0,0,1,114.32,42H82.84a1.73,1.73,0,0,1-1.72-1.73V8.33A1.73,1.73,0,0,1,82.84,6.6h21a1.73,1.73,0,0,1,1.72,1.73v5.13A3.38,3.38,0,0,0,109,16.92h5.36a1.73,1.73,0,0,1,1.72,1.73Zm-7.83-13,7.36,7.5a.49.49,0,0,1-.33.84h-5.9a2,2,0,0,1-1.95-2v-6A.48.48,0,0,1,108.22,6.8Zm9.3,6.37-8-8a1.54,1.54,0,0,0-1.12-.48H82.33a3.18,3.18,0,0,0-3.15,3.21V40.79A3.18,3.18,0,0,0,82.33,44h32.49A3.16,3.16,0,0,0,118,40.83l0-26.51A1.75,1.75,0,0,0,117.52,13.17Z"/><g class="7db92c57-ec65-49c6-934c-a14bbd7e484b"><rect class="8fccd1d4-b6bb-4018-b9d4-e900f67bd55a" x="-120.7" y="-221.22" width="647.11" height="494.84"/></g><path class="a1720df1-02da-4d47-bc34-a1a70fc09e4c" d="M-212.28,79a4.47,4.47,0,0,0-4.41,4.52v30a4.47,4.47,0,0,0,4.41,4.52h29.87a4.47,4.47,0,0,0,4.41-4.52v-30A4.47,4.47,0,0,0-182.41,79Zm32.52,4.52v30a2.69,2.69,0,0,1-2.65,2.71h-29.87a2.69,2.69,0,0,1-2.64-2.71v-30a2.69,2.69,0,0,1,2.64-2.72h29.87A2.7,2.7,0,0,1-179.76,83.52Z"/><g class="4c5922c7-bb3d-497c-bd28-f8db335c0f2b"><rect class="a1720df1-02da-4d47-bc34-a1a70fc09e4c" x="-561.77" y="-147.22" width="643.3" height="494.84"/></g><g class="0379a72e-1d9e-4ec4-b0fa-ff3066a35547"><g class="67fea6c7-a52d-401e-beed-042a86528bd2"><rect class="c3c2b407-fdac-462a-868f-17a97ea305f3" x="-4.08" y="-4.12" width="43.42" height="43.6"/></g></g><g class="68e4a4ab-11a3-4644-89ec-531fbe711cf6"><g class="67fea6c7-a52d-401e-beed-042a86528bd2"><rect class="a1720df1-02da-4d47-bc34-a1a70fc09e4c" x="0.74" y="0.53" width="47.34" height="47.6"/></g></g><path class="a1720df1-02da-4d47-bc34-a1a70fc09e4c" d="M34.76,28.63c.9.23.91.7.76.8a2,2,0,0,1-.88.16A10.35,10.35,0,0,1,31,28.48c.62-.05,1.17-.08,1.68-.08A6.4,6.4,0,0,1,34.76,28.63Zm-15.21.95,1.09-2a37.3,37.3,0,0,0,1.92-4.21,14.17,14.17,0,0,0,3.17,4c.15.13.31.26.49.39A38.63,38.63,0,0,0,19.55,29.58Zm3-16.42c.5,0,.79,1.28.81,2.48a5,5,0,0,1-.6,2.67A12.88,12.88,0,0,1,22.3,15S22.28,13.16,22.51,13.16Zm-9.91,23a11.14,11.14,0,0,1,3.09-3.73c.12-.08.36-.33.61-.56C14.54,34.72,13.37,35.85,12.6,36.2Zm16-8.93A10.34,10.34,0,0,1,26.77,26a13.82,13.82,0,0,1-3.35-5.27c0-.2.09-.36.13-.54A34.79,34.79,0,0,0,24.14,14a2.51,2.51,0,0,0-.1-.45L24,13.35a1.53,1.53,0,0,0-1.33-1.07l-.39-.07h0a1.52,1.52,0,0,0-1.52,1c-.49,1.82,0,4.55.93,8.08l-.23.59c-.64,1.61-1.48,3.24-2.19,4.66l-.1.2c-.76,1.5-1.45,2.78-2.07,3.85l-.64.35L15,31.73c-2.2,1.33-3.66,2.84-3.91,4a1,1,0,0,0,.37,1.09l.63.31a1.81,1.81,0,0,0,.85.21c1.56,0,3.39-2,5.9-6.38a57.72,57.72,0,0,1,9.07-2.18,15.68,15.68,0,0,0,6.63,2.12,3,3,0,0,0,.78-.1,1.29,1.29,0,0,0,.77-.53,2.87,2.87,0,0,0,.3-1.92,1.24,1.24,0,0,0-.37-.64c-.5-.51-1.63-.77-3.33-.79A31,31,0,0,0,28.64,27.27Z"/></svg>