 <svg class="icon" xmlns="http://www.w3.org/2000/svg" id="c1a26c25-dd77-49c2-99d9-df0cd5340645" data-name="Layer 1"
                viewBox="0 0 24 24">
 <defs>
      <style>
        path {
          fill: #76858d;
        }
      </style>
      </defs>
                <g id="8592075f-b175-49f6-820d-5d2d013429f3" data-name="settings">
                  <path class="8446bc33-bc11-48b5-9997-6d038acca7bc" d="M13.072,2a3.657,3.657,0,0,0,5.241,2.171l1.517,1.517A3.659,3.659,0,0,0,22,10.927v2.145a3.659,3.659,0,0,0-2.17,5.24l-1.517,1.517A3.657,3.657,0,0,0,13.073,22H10.928a3.657,3.657,0,0,0-5.241-2.171L4.171,18.313A3.659,3.659,0,0,0,2,13.073V10.928a3.659,3.659,0,0,0,2.17-5.24L5.687,4.171A3.657,3.657,0,0,0,10.927,2h2.144m.263-2h-2.67a1.66,1.66,0,0,0-1.62,1.3l0,.008a1.66,1.66,0,0,1-1.624,1.3,1.645,1.645,0,0,1-.888-.261l-.007,0a1.66,1.66,0,0,0-2.065.227L2.571,4.459a1.66,1.66,0,0,0-.227,2.065l0,.007a1.66,1.66,0,0,1-1.04,2.512l-.008,0A1.66,1.66,0,0,0,0,10.665v2.67a1.66,1.66,0,0,0,1.3,1.62l.008,0a1.66,1.66,0,0,1,1.04,2.512l0,.007a1.66,1.66,0,0,0,.227,2.065l1.888,1.888a1.66,1.66,0,0,0,2.065.227l.007,0a1.658,1.658,0,0,1,2.512,1.04l0,.008a1.66,1.66,0,0,0,1.62,1.3h2.67a1.66,1.66,0,0,0,1.62-1.3l0-.008a1.658,1.658,0,0,1,2.512-1.04l.007,0a1.66,1.66,0,0,0,2.065-.227l1.888-1.888a1.66,1.66,0,0,0,.227-2.065l0-.007a1.66,1.66,0,0,1,1.04-2.512l.008,0a1.66,1.66,0,0,0,1.3-1.62v-2.67a1.66,1.66,0,0,0-1.3-1.62l-.008,0a1.66,1.66,0,0,1-1.04-2.512l0-.007a1.66,1.66,0,0,0-.227-2.065L19.541,2.571a1.66,1.66,0,0,0-2.065-.227l-.007,0a1.646,1.646,0,0,1-.888.261,1.66,1.66,0,0,1-1.624-1.3l0-.008A1.66,1.66,0,0,0,13.335,0Z" />
                  <path class="8446bc33-bc11-48b5-9997-6d038acca7bc" d="M12,8a4,4,0,1,1-4,4,4,4,0,0,1,4-4m0-2a6,6,0,1,0,6,6,6,6,0,0,0-6-6Z" />
                </g>
              </svg>