<?xml version="1.0" encoding="UTF-8" standalone="no"?>
<!--Created with Inkscape (http://www.inkscape.org/)-->
<svg xmlns="http://www.w3.org/2000/svg" xmlns:cc="http://creativecommons.org/ns#" xmlns:dc="http://purl.org/dc/elements/1.1/" xmlns:inkscape="http://www.inkscape.org/namespaces/inkscape" xmlns:rdf="http://www.w3.org/1999/02/22-rdf-syntax-ns#" xmlns:sodipodi="http://sodipodi.sourceforge.net/DTD/sodipodi-0.dtd" xmlns:svg="http://www.w3.org/2000/svg" id="svg2" width="960.39734" height="353.74133" version="1.1" viewBox="0 0 960.39734 353.74133" inkscape:version="0.92.3 (2405546, 2018-03-11)" sodipodi:docname="verification.svg" xml:space="preserve">
    <metadata id="metadata8">
        <rdf:RDF>
            <cc:Work rdf:about="">
                <dc:format>
                    image/svg+xml
                </dc:format>
                <dc:type rdf:resource="http://purl.org/dc/dcmitype/StillImage"/>
                <dc:title/>
            </cc:Work>
        </rdf:RDF>
    </metadata>
    <style id="style3">
        .tickcontainer path{ transform-origin: 40px 0px; animation: shrinkandgrow 3s infinite linear; } .greencircle path{ } .halfcircle path{ transform-origin: -52px 0px; animation: rotation 3s infinite linear; } .righthand{ animation: rightHandAnimation linear 3s; animation-iteration-count: infinite; transform-origin: 0 0; transform-style: preserve-3D; } .mouse{ animation: mouseAnimation linear 3s; animation-iteration-count: infinite; transform-origin: 0 0; transform-style: preserve-3D; } .headgroup{ animation: headAnimation linear 3s; animation-iteration-count: infinite; transform-origin:top center; transform-style: preserve-3D; } @-webkit-keyframes rotation { 0% { transform: rotate(0deg); } 30% { transform: rotate(360deg); } 100% { transform: rotate(360deg); } } @-webkit-keyframes shrinkandgrow { 0% { transform: scale(0); } 30% { transform: scale(0); } 40%{ transform: scale(1); } 100% { transform: scale(1); } } @keyframes rightHandAnimation{ 0% { transform: rotate(0deg) ; } 50% { transform: rotate(3.5deg) ; } 100% { transform: rotate(0deg) ; } } @keyframes mouseAnimation{ 0% { transform: translateX(0px) ; } 20% { transform: translateX(0px) ; } 50% { transform: translateX(7px) ; } 70% { transform: translateX(0px) ; } 100% { transform: translateX(0px) ; } } @keyframes headAnimation{ 0% { transform: rotate(0deg) ; } 60% { transform: rotate(1deg) translateY(-1px) ; } 100% { transform: rotate(0deg); } }
    </style>
    <defs id="defs6">
        <clipPath id="clipPath18" clipPathUnits="userSpaceOnUse">
            <path id="path16" d="M 0,265.306 H 720.298 V 0 H 0 Z" inkscape:connector-curvature="0"/>
        </clipPath>
        <clipPath id="clipPath170" clipPathUnits="userSpaceOnUse">
            <path id="path168" d="m 456.085,265.306 h 85.99 v -42.39 h -85.99 z" inkscape:connector-curvature="0"/>
        </clipPath>
        <mask id="mask96" maskUnits="userSpaceOnUse">
            <rect id="rect98" width="103.14394" height="75.221001" x="0.1829851" y="-35.332161" style="opacity:1;fill:#ffffff;fill-opacity:1;stroke:none;stroke-width:0.075;stroke-miterlimit:4;stroke-dasharray:none;stroke-opacity:1" transform="scale(1,-1)" inkscape:label="tickmask"/>
        </mask>
        <clipPath id="clipPath109" clipPathUnits="userSpaceOnUse">
            <rect id="rect111" width="230.33849" height="172.20781" x="-72.188736" y="-77.612793" style="opacity:1;fill:none;fill-opacity:1;stroke:none;stroke-width:0.075;stroke-miterlimit:4;stroke-dasharray:none;stroke-opacity:1" transform="scale(1,-1)" inkscape:label="screenborder"/>
        </clipPath>
        <clipPath id="clipPath113" clipPathUnits="userSpaceOnUse">
            <rect id="rect115" width="230.33849" height="172.20781" x="-161.57253" y="-90.946793" style="opacity:1;fill:none;fill-opacity:1;stroke:none;stroke-width:0.075;stroke-miterlimit:4;stroke-dasharray:none;stroke-opacity:1" transform="scale(1,-1)" inkscape:label="screenborder"/>
        </clipPath>
        <clipPath id="clipPath117" clipPathUnits="userSpaceOnUse">
            <rect id="rect119" width="230.33849" height="172.20781" x="-163.98714" y="-90.643494" style="opacity:1;fill:none;fill-opacity:1;stroke:none;stroke-width:0.075;stroke-miterlimit:4;stroke-dasharray:none;stroke-opacity:1" transform="scale(1,-1)" inkscape:label="screenborder"/>
        </clipPath>
    </defs>
    <sodipodi:namedview id="namedview4" bordercolor="#666666" borderopacity="1" gridtolerance="10" guidetolerance="10" objecttolerance="10" pagecolor="#ffffff" showgrid="false" inkscape:current-layer="g14" inkscape:cx="432.12175" inkscape:cy="202.70216" inkscape:pageopacity="0" inkscape:pageshadow="2" inkscape:window-height="705" inkscape:window-maximized="1" inkscape:window-width="1366" inkscape:window-x="-8" inkscape:window-y="-8" inkscape:zoom="1.3161219"/>
    <g id="g10" transform="matrix(1.3333333,0,0,-1.3333333,0,353.74133)" inkscape:groupmode="layer" inkscape:label="verification">
        <g id="g12">
            <g id="g14" clip-path="url(#clipPath18)" style="display:inline">
                <g id="g20" transform="translate(572.8959,3.4)">
                    <path id="path22" d="m 0,0 c -3.883,24.141 -8.359,48.261 -15.493,71.682 -3.509,11.52 -7.664,22.851 -12.705,33.793 -4.68,10.156 -9.938,20.125 -17.78,28.221 -0.806,0.833 -4.439,-0.564 -3.613,-1.417 8.353,-8.623 13.791,-19.43 18.646,-30.295 4.794,-10.729 8.752,-21.819 12.113,-33.076 C -12.002,46.03 -7.651,22.51 -3.863,-1.035 -3.694,-2.088 0.196,-1.216 0,0" style="fill:#6a79a8;fill-opacity:1;fill-rule:nonzero;stroke:none" inkscape:connector-curvature="0"/>
                </g>
                <g id="g24" transform="translate(463.9135,141.2442)">
                    <path id="path26" d="m 0,0 c -6.98,-10.244 -13.604,-20.496 -19.075,-31.638 -0.896,-1.825 2.99,-1.607 3.648,-0.266 5.47,11.141 12.094,21.393 19.074,31.637 C 4.746,1.346 0.83,1.218 0,0" style="fill:#6a79a8;fill-opacity:1;fill-rule:nonzero;stroke:none" inkscape:connector-curvature="0"/>
                </g>
                <g id="g28" transform="translate(419.061,4.8799)">
                    <path id="path30" d="m 0,0 c 5.896,32.965 13.418,66.099 26.31,97.105 0.873,2.102 -3.013,2.224 -3.718,0.529 C 9.604,66.395 2.014,32.963 -3.927,-0.249 -4.288,-2.268 -0.329,-1.836 0,0" style="fill:#6a79a8;fill-opacity:1;fill-rule:nonzero;stroke:none" inkscape:connector-curvature="0"/>
                </g>
                <g id="g32" transform="translate(526.5854,119.0079)">
                    <path id="path34" d="m 0,0 c -4.27,-5.525 -9.216,-10.224 -15.301,-13.56 -1.752,-0.961 -5.331,-3.046 -7.705,-3.926 -2.238,3.676 -4.475,7.352 -6.714,11.028 -0.425,0.698 -1.999,1.482 -2.747,0.839 -0.612,-0.527 -5.558,-7.569 -7.215,-9.256 -0.987,-1.004 -1.468,-1.991 -2.936,-1.406 -0.971,0.386 -1.682,1.356 -2.483,1.99 -6.665,5.287 -13.344,10.556 -20.017,15.834 -2.152,1.702 -7.266,-1.424 -4.534,-3.585 8.403,-6.646 16.807,-13.293 25.211,-19.941 1.349,-1.067 3.753,-0.424 4.753,0.844 2.229,2.827 4.459,5.655 6.688,8.483 1.154,-1.895 2.308,-3.79 3.462,-5.685 1.746,-2.869 2.471,-4.707 6.119,-3.762 11.134,2.883 21.405,11.166 28.391,20.205 C 7.315,1.135 1.738,2.25 0,0" style="fill:#e5e5e5;fill-opacity:1;fill-rule:nonzero;stroke:none" inkscape:connector-curvature="0"/>
                </g>
                <g id="g36" transform="translate(526.8002,121.045)">
                    <path id="path38" d="m 0,0 c -3.898,-5.194 -8.42,-9.839 -14.015,-13.217 -3.115,-1.881 -7.474,-2.851 -10.336,-4.991 1.203,0.899 1.559,-1.279 0.508,1.157 -0.677,1.572 -1.826,3.089 -2.696,4.56 -1.219,2.062 -2.439,4.124 -3.658,6.186 -0.62,1.05 -3.132,0.188 -3.707,-0.564 -3.158,-4.124 -6.318,-8.248 -9.476,-12.373 1.194,0.253 2.388,0.505 3.581,0.757 -8.162,6.647 -16.325,13.294 -24.488,19.941 -0.935,0.76 -4.46,-0.731 -3.612,-1.421 8.162,-6.647 16.325,-13.294 24.488,-19.941 0.84,-0.684 2.973,-0.04 3.582,0.756 3.159,4.125 6.317,8.249 9.476,12.373 -1.236,-0.188 -2.471,-0.376 -3.708,-0.563 2.439,-4.125 4.878,-8.249 7.317,-12.373 0.239,-0.404 0.705,-0.438 1.141,-0.43 3.633,0.069 7.963,2.888 11.152,4.539 7.239,3.752 13.129,9.203 18.003,15.695 C 4.46,1.301 0.661,0.88 0,0" style="fill:#6a79a8;fill-opacity:1;fill-rule:nonzero;stroke:none" inkscape:connector-curvature="0"/>
                </g>
                <g id="g40" transform="translate(508.4643,80.5953)">
                    <path id="path42" d="m 0,0 c 0.562,-1.104 2.535,-0.989 3.544,-1.092 1.609,-0.163 3.226,-0.265 4.844,-0.287 3.094,-0.042 6.288,1.064 9.326,0.85 0.953,-0.067 2.489,0.438 3.282,0.936 0.827,0.518 0.523,1.425 -0.472,1.4 C 19.7,1.786 18.878,1.67 18.063,1.546 16.483,1.303 14.908,0.965 13.304,0.934 10.244,0.874 7.138,1.247 4.121,1.749 2.972,1.94 1.743,1.682 0.668,1.274 0.113,1.065 -0.231,1.021 -0.131,0.405 -0.105,0.254 -0.062,0.12 0,0" style="fill:#f2f2f2;fill-opacity:1;fill-rule:nonzero;stroke:none" inkscape:connector-curvature="0"/>
                </g>
                <g id="g44" transform="translate(508.0737,81.1216)">
                    <path id="path46" d="M 0,0 C 3.344,-0.508 6.74,-0.833 10.123,-0.858 13.207,-0.882 17.47,0.151 19.822,0 21.651,-0.118 23.793,2.557 21.183,2.725 18.117,2.921 15.055,1.954 11.992,1.879 8.454,1.792 4.855,2.193 1.36,2.725 -0.489,3.006 -2.591,0.394 0,0" style="fill:#6a79a8;fill-opacity:1;fill-rule:nonzero;stroke:none" inkscape:connector-curvature="0"/>
                </g>
                <g id="g48" transform="translate(521.2885,73.834)">
                    <path id="path50" d="m 0,0 c 0,-1.449 -1.175,-2.624 -2.623,-2.624 -1.449,0 -2.624,1.175 -2.624,2.624 0,1.449 1.175,2.624 2.624,2.624 C -1.175,2.624 0,1.449 0,0" style="fill:#6a79a8;fill-opacity:1;fill-rule:nonzero;stroke:none" inkscape:connector-curvature="0"/>
                </g>
                <g id="g52" transform="translate(527.0678,190.6373)">
                    <path id="path54" d="M 0,0 C 0.563,33.614 -13.778,61.112 -32.034,61.419 -50.29,61.726 -65.547,34.724 -66.111,1.11 c -0.013,-0.778 -0.078,-4.651 -0.102,-6.025 -0.312,-18.637 1.055,-31.649 3.676,-40.734 2.026,-7.027 6.627,-12.975 12.172,-17.622 3.983,-3.338 8.474,-6.114 13.207,-8.261 1.362,-0.618 2.781,-0.742 4.144,-0.223 0.871,0.332 1.736,0.685 2.591,1.055 2.456,1.062 4.853,2.263 7.166,3.608 5.84,3.395 11.379,7.794 15.004,13.576 0.95,1.516 1.757,3.121 2.38,4.798 3.354,9.037 5.434,22.549 5.771,42.694 C -0.079,-4.693 -0.015,-0.819 0,0" style="fill:#ffffff;fill-opacity:1;fill-rule:nonzero;stroke:none" inkscape:connector-curvature="0"/>
                </g>
                <g id="g64" transform="translate(483.6372,194.0049)">
                    <path id="path66" d="m 0,0 c -0.091,-6.086 -5.098,-10.945 -11.184,-10.854 -6.085,0.09 -10.944,5.097 -10.853,11.183 0.091,6.086 5.098,10.945 11.183,10.854 C -4.769,11.092 0.091,6.085 0,0" style="fill:#ffffff;fill-opacity:1;fill-rule:nonzero;stroke:none" inkscape:connector-curvature="0"/>
                </g>
                <g id="g72" transform="translate(516.1537,193.5191)">
                    <path id="path74" d="m 0,0 c -0.091,-6.085 -5.098,-10.945 -11.183,-10.854 -6.086,0.091 -10.945,5.098 -10.854,11.183 0.091,6.086 5.098,10.945 11.184,10.855 C -4.769,11.093 0.091,6.085 0,0" style="fill:#ffffff;fill-opacity:1;fill-rule:nonzero;stroke:none" inkscape:connector-curvature="0"/>
                </g>
                <g id="g88" transform="translate(542.5551,105.5377)">
                    <path id="path90" d="m 0,0 c 16.731,-14.659 15.685,-36.93 3.793,-54.374 -12.577,-18.448 -32.78,-28.452 -54.023,-33.372 -2.378,-0.551 -1.756,-2.823 0.609,-2.275 21.944,5.082 42.795,15.394 56.162,34.11 C 19.437,-37.854 21.297,-13.934 3.563,1.604 2.412,2.613 -1.226,1.074 0,0" style="fill:#6a79a8;fill-opacity:1;fill-rule:nonzero;stroke:none" inkscape:connector-curvature="0"/>
                </g>
                <g id="g92" transform="translate(487.8491,12.2476)">
                    <path id="path94" d="M 0,0 C 1.694,1.341 3.39,2.682 5.085,4.023 5.767,4.563 5.406,5.317 4.684,5.521 3.737,5.788 2.682,5.368 1.951,4.79 0.256,3.448 -1.438,2.107 -3.134,0.766 -3.816,0.227 -3.456,-0.528 -2.732,-0.732 -1.787,-0.999 -0.73,-0.578 0,0" style="fill:#6a79a8;fill-opacity:1;fill-rule:nonzero;stroke:none" inkscape:connector-curvature="0"/>
                </g>
                <g id="g96" transform="translate(484.3247,14.3184)">
                    <path id="path98" d="M 0,0 4.242,0.488 C 5.126,0.589 6.264,1.103 6.352,2.122 6.435,3.079 5.359,3.613 4.531,3.518 3.117,3.355 1.703,3.192 0.289,3.029 -0.594,2.928 -1.731,2.414 -1.82,1.395 -1.902,0.438 -0.827,-0.095 0,0" style="fill:#6a79a8;fill-opacity:1;fill-rule:nonzero;stroke:none" inkscape:connector-curvature="0"/>
                </g>
                <g id="g104" transform="translate(516.1557,1.9464)">
                    <path id="path106" d="M 0,0 H -121.253 V 11.858 L 0,8.505 Z" style="fill:#ffffff;fill-opacity:1;fill-rule:nonzero;stroke:none" inkscape:connector-curvature="0"/>
                </g>
                <g id="g108" transform="translate(516.9203,2.9908)">
                    <path id="path110" d="m 0,0 h -114.039 c -2.129,0 -4.852,-0.464 -6.944,0 -0.814,0.181 0.892,-0.453 0.897,-0.421 0.207,1.213 0,2.662 0,3.879 v 7.874 c -0.899,-0.521 -1.798,-1.041 -2.697,-1.562 37.299,-1.032 74.598,-2.063 111.898,-3.095 2.638,-0.072 5.675,-0.584 8.297,-0.229 1.905,0.258 -0.114,-0.061 -0.109,-0.045 -0.735,-2.122 0,-5.683 0,-7.963 0,-1.1 3.864,-0.405 3.864,1.035 V 7.979 C 1.167,8.434 0.27,8.498 0,8.505 c -35.419,0.98 -70.837,1.959 -106.256,2.939 -4.999,0.138 -9.998,0.276 -14.996,0.414 -0.889,0.025 -2.698,-0.429 -2.698,-1.562 V -1.562 c 0,-0.45 0.898,-0.527 1.167,-0.527 H -16.526 -1.53 C -0.143,-2.089 2.594,0 0,0" style="fill:#6a79a8;fill-opacity:1;fill-rule:nonzero;stroke:none" inkscape:connector-curvature="0"/>
                </g>
                <g id="g112" transform="translate(271.2163,56.566)">
                    <path id="path114" d="m 0,0 c -2.059,-20.075 4.171,-41.017 18.694,-55.355 0.903,-0.892 4.545,0.537 3.599,1.471 C 8.046,-39.818 1.831,-19.184 3.853,0.526 3.999,1.956 0.125,1.219 0,0" style="fill:#6a79a8;fill-opacity:1;fill-rule:nonzero;stroke:none" inkscape:connector-curvature="0"/>
                </g>
                <g id="g116" transform="translate(221.6728,56.566)">
                    <path id="path118" d="m 0,0 c -1.163,-18.759 1.453,-39.11 11.499,-55.355 0.617,-0.998 4.383,0.203 3.599,1.471 C 5.285,-38.015 2.718,-17.779 3.852,0.526 3.942,1.984 0.074,1.203 0,0" style="fill:#6a79a8;fill-opacity:1;fill-rule:nonzero;stroke:none" inkscape:connector-curvature="0"/>
                </g>
                <g id="g120" transform="translate(366.8105,56.8287)">
                    <path id="path122" d="m 0,0 h -234.753 c -7.296,0 -13.211,5.915 -13.211,13.211 v 176.386 c 0,7.296 5.915,13.211 13.211,13.211 H 0 c 7.296,0 13.211,-5.915 13.211,-13.211 V 13.211 C 13.211,5.915 7.296,0 0,0" style="fill:#e3e3e3;fill-opacity:1;fill-rule:nonzero;stroke:none" inkscape:connector-curvature="0"/>
                </g>
                <g id="g124" transform="translate(366.8105,67.3863)">
                    <path id="path126" d="m 0,0 h -220.562 c -7.296,0 -13.211,5.915 -13.211,13.211 v 165.828 c 0,7.296 5.915,13.211 13.211,13.211 L 0,192.25 c 7.296,0 13.211,-5.915 13.211,-13.211 V 13.211 C 13.211,5.915 7.296,0 0,0" style="fill:#ffffff;fill-opacity:1;fill-rule:nonzero;stroke:none" inkscape:connector-curvature="0"/>
                </g>
                <g id="g128" transform="translate(359.6958,246.2891)">
                    <path id="path130" d="m 0,0 c 5.726,-0.837 3.576,-16.311 3.577,-20.641 0,-4.799 10e-4,-9.598 10e-4,-14.397 0,-1.865 0,-3.73 0,-5.594 v -29.075 -78.95 -19.313 c 0,-1.32 2.911,-0.761 2.911,0.313 v 128.18 c 0,2.894 0,5.788 -10e-4,8.681 0,7.613 0.032,15.226 -0.001,22.838 C 6.468,-3.447 6.407,1.03 1.083,1.809 -0.148,1.989 -1.94,0.284 0,0" style="fill:#6a79a8;fill-opacity:1;fill-rule:nonzero;stroke:none" inkscape:connector-curvature="0"/>
                </g>
                <g id="g132" transform="translate(367.5503,57.9678)">
                    <path id="path134" d="m 0,0 h -67.461 -118.582 -39.945 c -2.731,0 -5.48,-0.088 -8.21,0 -7.5,0.242 -12.347,5.726 -12.571,13.036 -0.916,29.923 0,60.018 0,89.953 v 56.815 c 0,9.526 -0.374,19.136 0,28.656 0.538,13.683 12.647,12.07 22.145,12.07 h 42.571 118.971 45.753 c 7.405,0 19.762,2.077 24.993,-4.438 3.145,-3.917 2.872,-8.208 2.872,-12.804 v -16.37 -54.439 -97.631 c 0,-7.159 -2.369,-14.432 -11.025,-14.869 -1.954,-0.099 -3.173,-2.371 -0.502,-2.236 8.636,0.436 15.264,6.603 15.398,15.369 0.059,3.869 0,7.744 0,11.615 v 50.622 107.654 c 0,3.179 0.354,6.841 -0.598,9.901 -2.108,6.781 -8.407,9.834 -15.044,9.904 -9.706,0.101 -19.417,0 -29.123,0 H -149.43 c -28.024,0 -56.065,0.291 -84.087,0 -6.195,-0.065 -12.243,-2.261 -15.398,-7.987 -2.006,-3.643 -1.724,-7.559 -1.724,-11.533 V 140.115 25.375 c 0,-10.678 -1.95,-25.946 12.839,-27.558 6.976,-0.76 14.333,-0.095 21.33,-0.095 h 113.531 96.184 5.276 C 0.03,-2.278 2.602,0 0,0" style="fill:#6a79a8;fill-opacity:1;fill-rule:nonzero;stroke:none" inkscape:connector-curvature="0"/>
                </g>
                <g id="g136" transform="translate(1.3882,0.0836)">
                    <path id="path138" d="m 0,0 h 19.184 51.887 77.093 94.099 102.579 104.05 97.017 81.618 59.008 c 9.307,0 18.636,-0.188 27.941,0 0.396,0.008 0.795,0 1.191,0 1.875,0 5.106,2.829 1.854,2.829 H 698.338 646.451 569.358 475.26 372.68 268.631 171.613 89.995 30.986 c -9.306,0 -18.634,0.188 -27.94,0 -0.396,-0.008 -0.794,0 -1.191,0 C -0.02,2.829 -3.251,0 0,0" style="fill:#6a79a8;fill-opacity:1;fill-rule:nonzero;stroke:none" inkscape:connector-curvature="0"/>
                </g>
                <g id="g152" style="display:inline" transform="translate(374.6909,2.9464)">
                    <path id="path154" d="m 0,0 h -43.875 v 7.822 l 22.125,7.663 C -11.105,19.172 0,11.266 0,0" style="fill:#ffffff;fill-opacity:1;fill-rule:nonzero;stroke:none" inkscape:connector-curvature="0"/>
                </g>
                <g id="g106" class="mouse" style="display:inline" inkscape:label="mouse">
                    <g id="g156" style="display:inline" transform="translate(375.7114,4.0123)">
                        <path id="path158" d="m 0,0 h -43.875 c 0.464,-0.14 0.929,-0.279 1.394,-0.419 v 7.822 c -0.518,-0.433 -1.035,-0.867 -1.552,-1.3 6.223,2.155 12.446,4.31 18.668,6.465 4.079,1.413 7.922,2.34 12.185,0.552 5.916,-2.483 9.744,-8.457 9.744,-14.833 0,-0.945 4.83,-0.212 4.83,1.294 0,13.51 -13.905,19.148 -25.226,15.423 C -31.176,12.588 -38.453,9.94 -45.759,7.41 -46.301,7.222 -47.311,6.808 -47.311,6.109 v -7.822 c 0,-0.487 1.163,-0.419 1.394,-0.419 H -2.041 C -0.61,-2.132 3.2,0 0,0" style="display:inline;fill:#6a79a8;fill-opacity:1;fill-rule:nonzero;stroke:none" inkscape:connector-curvature="0"/>
                    </g>
                    <g id="g160" style="display:inline" transform="translate(343.9409,6.7408)">
                        <path id="path162" d="M 0,0 C 2.784,0 3.685,3.608 0.409,3.608 -2.374,3.608 -3.276,0 0,0" style="fill:#6a79a8;fill-opacity:1;fill-rule:nonzero;stroke:none" inkscape:connector-curvature="0"/>
                    </g>
                </g>
                <g id="g60" transform="translate(444.1992,108.4937)" inkscape:label="handcontainer">
                    <path id="path62" d="m 0,0 c -2.842,-0.597 -5.969,-0.848 -8.195,-2.915 -3.556,-3.3 -5.126,-8.908 -6.988,-13.22 -5.421,-12.561 -14.32,-23.392 -23.598,-33.312 -9.656,-10.322 -20.296,-19.747 -31.64,-28.175 -2.278,-1.692 -4.59,-3.337 -6.929,-4.944 -1.85,-1.27 -3.588,-2.776 -6.121,-2.497 -1.092,0.12 -2.234,0.928 -3.31,1.206 -3.908,1.009 -7.744,-0.04 -10.995,-2.291 -2.152,-1.491 1.053,-2.579 2.51,-1.569 5.238,3.628 9.767,-1.714 15.135,0.33 4.389,1.671 8.494,5.428 12.22,8.197 9.844,7.313 19.173,15.379 27.809,24.085 8.409,8.476 16.326,17.587 22.754,27.674 3.221,5.054 5.45,10.368 7.888,15.809 1.05,2.344 2.228,5.852 4.292,7.516 1.499,1.208 3.984,1.3 5.817,1.685 C 3.057,-1.916 2.379,0.5 0,0" class="righthand" clip-path="none" style="display:inline;fill:#6a79a8;fill-opacity:1;fill-rule:nonzero;stroke:none" inkscape:connector-curvature="0" inkscape:label="hand"/>
                    <path id="path913" d="m -42.450687,-88.548747 33.0516454,66.103299 3.9889951,15.3861155 6.26841763,0.5698576 L 4.8473587,3.1980803 -41.88083,0.91865024 -69.233923,-61.765511 l -39.320067,-22.794248 4.55885,-9.117691 46.158337,-1.139715 4.558845,7.408126 z" style="fill:none;stroke:none;stroke-width:0;stroke-linecap:butt;stroke-linejoin:miter;stroke-miterlimit:4;stroke-dasharray:none;stroke-opacity:1" inkscape:connector-curvature="0" sodipodi:nodetypes="cccccccccccc"/>
                </g>
                <g id="g121" class="headgroup" style="display:inline" transform="translate(1.5)" inkscape:label="headgroup">
                    <g id="g56" transform="translate(529.0219,190.794)">
                        <path id="path58" d="m 0,0 c 0.119,12.928 -1.549,26.056 -6.461,38.093 -3.463,8.487 -8.734,17.24 -16.996,21.791 -16.814,9.262 -31.9,-6.293 -38.469,-20.604 -5.259,-11.459 -7.64,-24.204 -8.052,-36.751 -0.394,-12.003 -0.442,-24.148 1.056,-36.082 1.455,-11.587 4.756,-21.65 13.658,-29.7 4.359,-3.941 10.536,-8.855 16.407,-10.161 4.605,-1.024 10.001,2.521 13.794,4.665 11.382,6.436 18.562,15.218 21.524,27.958 3.102,13.339 3.31,27.166 3.539,40.791 0.033,1.977 -3.881,1.381 -3.909,-0.313 -0.173,-10.308 -0.388,-20.62 -1.762,-30.853 -1.285,-9.563 -3.183,-19.633 -9.989,-26.917 -4.093,-4.381 -9.288,-7.71 -14.646,-10.328 -3.778,-1.845 -6.306,-2.816 -10.429,-0.657 -3.07,1.608 -6.027,3.494 -8.743,5.646 -8.758,6.938 -13.145,15.756 -14.956,26.584 -1.783,10.669 -1.938,21.568 -1.771,32.358 0.157,10.134 0.757,20.12 3.278,29.985 3.577,13.999 15.233,40.487 34.237,33.218 8.874,-3.394 14.595,-12.691 18.105,-21.027 C -5.549,25.734 -3.79,12.586 -3.909,-0.313 -3.928,-2.292 -0.016,-1.692 0,0" style="fill:#6a79a8;fill-opacity:1;fill-rule:nonzero;stroke:none" inkscape:connector-curvature="0"/>
                    </g>
                    <g id="g68" transform="translate(481.7192,193.7105)">
                        <path id="path70" d="m 0,0 c -0.136,-1.973 -0.538,-3.693 -1.562,-5.388 -1.899,-3.14 -6.02,-5.009 -9.614,-3.723 -4.265,1.528 -7.011,5.662 -6.954,10.139 0.073,5.894 5.413,11.347 11.635,8.783 C -2.334,8.096 -0.182,4.104 -0.014,-0.224 0.022,-1.152 3.899,-0.466 3.85,0.812 3.233,16.672 -21.727,15.397 -22.044,0.217 -22.38,-15.827 2.805,-14.384 3.836,0.588 3.924,1.864 0.074,1.068 0,0" style="fill:#6a79a8;fill-opacity:1;fill-rule:nonzero;stroke:none" inkscape:connector-curvature="0"/>
                    </g>
                    <g id="g76" transform="translate(514.1996,193.3614)">
                        <path id="path78" d="m 0,0 c -0.354,-5.143 -4.046,-9.96 -9.751,-9.244 -4.802,0.604 -8.42,5.128 -8.378,9.889 0.044,4.934 3.764,9.213 8.799,9.258 C -3.922,9.953 -0.196,5.045 0,0 0.077,-1.981 3.974,-1.354 3.909,0.315 3.278,16.53 -21.665,16.289 -22.037,0.329 -22.42,-16.078 2.826,-15.419 3.909,0.315 4.043,2.269 0.117,1.698 0,0" style="fill:#6a79a8;fill-opacity:1;fill-rule:nonzero;stroke:none" inkscape:connector-curvature="0"/>
                    </g>
                    <g id="g80" transform="translate(517.185,194.5215)">
                        <path id="path82" d="m 0,0 c 2.759,1.237 5.829,2.136 8.894,1.762 1.028,-0.125 2.256,-0.331 2.964,-1.188 0.295,-0.357 0.985,-3.044 0.143,-3.254 -2.3,-0.574 -1.866,-2.244 0.446,-1.667 3.582,0.895 5.581,5.47 1.53,7.387 C 9.442,5.186 2.791,3.237 -1.458,1.332 -3.923,0.226 -1.643,-0.737 0,0" style="fill:#6a79a8;fill-opacity:1;fill-rule:nonzero;stroke:none" inkscape:connector-curvature="0"/>
                    </g>
                    <g id="g84" transform="translate(485.563,191.7437)">
                        <path id="path86" d="M 0,0 C -0.082,1.561 0.905,4.217 2.865,3.776 4.629,3.379 5.731,1.53 5.952,-0.12 6.124,-1.397 10.009,-0.522 9.816,0.915 8.732,8.995 -4.269,6.65 -3.864,-1.036 -3.8,-2.256 0.077,-1.477 0,0" style="fill:#6a79a8;fill-opacity:1;fill-rule:nonzero;stroke:none" inkscape:connector-curvature="0"/>
                    </g>
                    <g id="g100" transform="translate(473.5249,154.9986)">
                        <path id="path102" d="m 0,0 c 1.363,-6.972 4.558,-11.302 12.111,-10.996 4.918,0.2 11.702,1.888 13.434,7.084 0.246,0.738 -4.358,0.276 -4.75,-0.898 C 19.15,-9.744 12.735,-10.43 8.863,-7.527 6.09,-5.448 5.452,-1.892 4.829,1.294 4.658,2.169 -0.208,1.061 0,0" style="fill:#6a79a8;fill-opacity:1;fill-rule:nonzero;stroke:none" inkscape:connector-curvature="0"/>
                    </g>
                    <g id="g164">
                        <g id="g166"/>
                        <g id="g178">
                            <g id="g176" clip-path="url(#clipPath170)" style="opacity:0.5">
                                <g id="g174" transform="translate(542.0287,240.045)">
                                    <path id="path172" d="m 0,0 c -1.087,-11.486 -21.198,-18.977 -44.918,-16.731 -23.72,2.246 -42.067,13.377 -40.98,24.863 1.087,11.486 21.198,18.977 44.918,16.731 C -17.26,22.618 1.088,11.486 0,0" style="fill:#07a0dd;fill-opacity:1;fill-rule:nonzero;stroke:none" inkscape:connector-curvature="0"/>
                                </g>
                            </g>
                        </g>
                    </g>
                </g>
                <g id="g101" inkscape:label="screen">
                    <g id="g140" class="greencircle" clip-path="url(#clipPath117)" style="display:inline" transform="translate(297.9033,155.6456)" inkscape:label="greencircle">
                        <path id="path142" d="m 0,0 c 0,-30.495 -24.722,-55.217 -55.217,-55.217 -30.495,0 -55.217,24.722 -55.217,55.217 0,30.496 24.722,55.217 55.217,55.217 C -24.722,55.217 0,30.496 0,0" style="fill:#96e296;fill-opacity:1;fill-rule:nonzero;stroke:none" inkscape:connector-curvature="0"/>
                    </g>
                    <g id="g148" class="halfcircle" clip-path="url(#clipPath113)" style="display:inline" transform="translate(295.4887,155.3423)" inkscape:label="halfcircle">
                        <path id="path150" d="m 0,0 c -0.221,-17.706 -8.542,-34.596 -23.295,-44.674 -15.452,-10.556 -35.715,-11.592 -52.374,-3.209 -33.018,16.616 -39.998,62.88 -12.834,88.195 16.98,15.824 41.926,17.796 61.875,6.369 1.362,-0.781 5.81,1.207 3.844,2.334 -18.439,10.562 -41.5,10.35 -59.762,-0.542 -16.759,-9.996 -27.6,-28.202 -27.879,-47.771 -0.278,-19.533 9.816,-37.942 26.337,-48.336 16.415,-10.327 37.69,-11.306 55.242,-3.26 C -8.638,-41.631 4.552,-21.638 4.829,0.607 4.854,2.595 0.02,1.589 0,0" style="display:inline;fill:#6a79a8;fill-opacity:1;fill-rule:nonzero;stroke:none" inkscape:connector-curvature="0"/>
                    </g>
                    <g id="g144" class="tickcontainer" clip-path="url(#clipPath109)" style="display:inline" transform="translate(206.1049,168.6763)" inkscape:label="tickcontainer">
                        <path id="path146" d="m 0,0 c 9.236,-4.776 16.273,-13.779 22.346,-21.973 3.834,-5.174 7.48,-10.543 10.717,-16.114 0.769,-1.323 3.957,-0.36 4.642,0.677 6.982,10.57 14.444,20.854 22.173,30.887 6.345,8.236 12.923,16.324 20.036,23.913 5.768,6.155 12.056,12.655 19.653,16.545 2.869,1.469 -1.489,1.889 -2.922,1.155 C 89.4,31.381 83.344,25.495 77.727,19.708 70.252,12.008 63.411,3.692 56.826,-4.773 48.582,-15.37 40.653,-26.266 33.251,-37.47 c 1.547,0.225 3.094,0.451 4.642,0.677 -3.339,5.745 -7.086,11.289 -11.039,16.625 C 20.586,-11.711 13.407,-2.749 3.887,2.174 2.644,2.817 -1.813,0.937 0,0" mask="url(#mask96)" style="fill:#6a79a8;fill-opacity:1;fill-rule:nonzero;stroke:none" inkscape:connector-curvature="0" inkscape:label="tick"/>
                    </g>
                </g>
            </g>
        </g>
    </g>
</svg>
