<?xml version="1.0" encoding="utf-8"?>
<!-- Generator: Adobe Illustrator 16.0.0, SVG Export Plug-In . SVG Version: 6.00 Build 0)  -->
<!DOCTYPE svg PUBLIC "-//W3C//DTD SVG 1.1//EN" "http://www.w3.org/Graphics/SVG/1.1/DTD/svg11.dtd">
<svg version="1.1" id="Layer_1" xmlns="http://www.w3.org/2000/svg" xmlns:xlink="http://www.w3.org/1999/xlink" x="0px" y="0px"
	 width="15.5px" height="13px" viewBox="0 0 15.5 13" enable-background="new 0 0 15.5 13" xml:space="preserve">
<g>
	<defs>
		<rect id="SVGID_1_" width="15.5" height="13"/>
	</defs>
	<clipPath id="SVGID_2_">
		<use xlink:href="#SVGID_1_"  overflow="visible"/>
	</clipPath>
	<path clip-path="url(#SVGID_2_)" fill="#738593" d="M9,0C5.41,0,2.5,2.91,2.5,6.5h1.857c0-2.561,2.082-4.643,4.643-4.643
		c2.561,0,4.643,2.082,4.643,4.643c0,2.561-2.082,4.643-4.643,4.643c-1.059,0-2.024-0.37-2.806-0.969l0.02,0.04l-1.557,1.112
		C5.809,12.363,7.328,13,9,13c3.59,0,6.5-2.91,6.5-6.5S12.59,0,9,0"/>
	<polyline clip-path="url(#SVGID_2_)" fill="#738593" points="7.5,5 3.75,9 0,5 	"/>
</g>
</svg>
